G04 #@! TF.FileFunction,Copper,L1,Top,Signal*
%FSLAX46Y46*%
G04 Gerber Fmt 4.6, Leading zero omitted, Abs format (unit mm)*
G04 Created by KiCad (PCBNEW 4.0.2-stable) date 15/05/2017 19:39:16*
%MOMM*%
G01*
G04 APERTURE LIST*
%ADD10C,0.100000*%
%ADD11R,0.400000X1.200000*%
%ADD12R,1.500000X1.250000*%
%ADD13R,1.250000X1.500000*%
%ADD14R,1.200000X1.200000*%
%ADD15R,1.700000X1.700000*%
%ADD16O,1.700000X1.700000*%
%ADD17R,1.500000X1.300000*%
%ADD18R,1.300000X1.500000*%
%ADD19R,1.800000X1.100000*%
%ADD20R,1.550000X0.600000*%
%ADD21R,0.450000X1.450000*%
%ADD22R,1.200000X0.600000*%
%ADD23R,0.600000X1.200000*%
%ADD24R,1.600000X1.400000*%
%ADD25C,1.500000*%
%ADD26R,2.400000X3.325000*%
%ADD27C,0.800000*%
%ADD28C,0.600000*%
%ADD29C,0.400000*%
%ADD30C,0.500000*%
%ADD31C,1.000000*%
%ADD32C,0.254000*%
G04 APERTURE END LIST*
D10*
D11*
X214669800Y-64825200D03*
X214019800Y-64825200D03*
X213369800Y-64825200D03*
X212719800Y-64825200D03*
X212069800Y-64825200D03*
X211419800Y-64825200D03*
X210769800Y-64825200D03*
X210119800Y-64825200D03*
X210119800Y-71725200D03*
X210769800Y-71725200D03*
X211419800Y-71725200D03*
X212069800Y-71725200D03*
X212719800Y-71725200D03*
X213369800Y-71725200D03*
X214019800Y-71725200D03*
X214669800Y-71725200D03*
D12*
X214675400Y-61772800D03*
X217175400Y-61772800D03*
D13*
X231089200Y-63975300D03*
X231089200Y-61475300D03*
X229146100Y-63975300D03*
X229146100Y-61475300D03*
X225386900Y-60266900D03*
X225386900Y-57766900D03*
X179197000Y-68775900D03*
X179197000Y-66275900D03*
D12*
X193326700Y-67005200D03*
X195826700Y-67005200D03*
X193326700Y-68783200D03*
X195826700Y-68783200D03*
D13*
X199002650Y-62764350D03*
X199002650Y-65264350D03*
X199053450Y-57250650D03*
X199053450Y-54750650D03*
X231635300Y-80296700D03*
X231635300Y-82796700D03*
X229743000Y-80296700D03*
X229743000Y-82796700D03*
X202933300Y-62641800D03*
X202933300Y-60141800D03*
D12*
X213162200Y-74676000D03*
X210662200Y-74676000D03*
D13*
X218173300Y-77528100D03*
X218173300Y-80028100D03*
D12*
X218178700Y-82016600D03*
X215678700Y-82016600D03*
D14*
X210545500Y-82194400D03*
X212745500Y-82194400D03*
D15*
X234861100Y-72644000D03*
D16*
X234861100Y-70104000D03*
D15*
X235064300Y-58381900D03*
D16*
X235064300Y-55841900D03*
D15*
X202222100Y-78981300D03*
D16*
X199682100Y-78981300D03*
D15*
X202196700Y-75260200D03*
D16*
X199656700Y-75260200D03*
D15*
X234670600Y-80289400D03*
D16*
X234670600Y-82829400D03*
D17*
X228075500Y-73444100D03*
X230775500Y-73444100D03*
X230737400Y-71551800D03*
X228037400Y-71551800D03*
X208080600Y-79019400D03*
X205380600Y-79019400D03*
D18*
X205232000Y-72538600D03*
X205232000Y-75238600D03*
D17*
X221199700Y-65011300D03*
X218499700Y-65011300D03*
X218499700Y-67005200D03*
X221199700Y-67005200D03*
X228062800Y-75349100D03*
X230762800Y-75349100D03*
X217864700Y-73355200D03*
X220564700Y-73355200D03*
X220552000Y-71399400D03*
X217852000Y-71399400D03*
D18*
X228765100Y-58373000D03*
X228765100Y-55673000D03*
X194386200Y-73453000D03*
X194386200Y-76153000D03*
D19*
X190628200Y-76140700D03*
X184428200Y-76140700D03*
X184428200Y-79840700D03*
X190628200Y-79840700D03*
D20*
X224528400Y-65913000D03*
X224528400Y-67183000D03*
X224528400Y-68453000D03*
X224528400Y-69723000D03*
X229928400Y-69723000D03*
X229928400Y-68453000D03*
X229928400Y-67183000D03*
X229928400Y-65913000D03*
D21*
X221382950Y-60270750D03*
X222032950Y-60270750D03*
X222682950Y-60270750D03*
X223332950Y-60270750D03*
X223332950Y-55870750D03*
X222682950Y-55870750D03*
X222032950Y-55870750D03*
X221382950Y-55870750D03*
D22*
X190343100Y-71075200D03*
X190343100Y-70275200D03*
X190343100Y-69475200D03*
X190343100Y-68675200D03*
X190343100Y-67875200D03*
X190343100Y-67075200D03*
X190343100Y-66275200D03*
X190343100Y-65475200D03*
D23*
X188893100Y-64025200D03*
X188093100Y-64025200D03*
X187293100Y-64025200D03*
X186493100Y-64025200D03*
X185693100Y-64025200D03*
X184893100Y-64025200D03*
X184093100Y-64025200D03*
X183293100Y-64025200D03*
D22*
X181843100Y-65475200D03*
X181843100Y-66275200D03*
X181843100Y-67075200D03*
X181843100Y-67875200D03*
X181843100Y-68675200D03*
X181843100Y-69475200D03*
X181843100Y-70275200D03*
X181843100Y-71075200D03*
D23*
X183293100Y-72525200D03*
X184093100Y-72525200D03*
X184893100Y-72525200D03*
X185693100Y-72525200D03*
X186493100Y-72525200D03*
X187293100Y-72525200D03*
X188093100Y-72525200D03*
X188893100Y-72525200D03*
D24*
X205440600Y-55821400D03*
X202940600Y-55821400D03*
X205440600Y-58021400D03*
X202940600Y-58021400D03*
D25*
X219468700Y-62801500D03*
X211442300Y-59232800D03*
X234975400Y-66319400D03*
X208749900Y-59194700D03*
X222859600Y-71450200D03*
X208076800Y-81432400D03*
D26*
X196170550Y-62750950D03*
X196170550Y-57225950D03*
D12*
X210674900Y-76504800D03*
X213174900Y-76504800D03*
D15*
X202209400Y-71424800D03*
D16*
X202209400Y-68884800D03*
D13*
X216306400Y-77566200D03*
X216306400Y-80066200D03*
X205422500Y-60167200D03*
X205422500Y-62667200D03*
D17*
X213274900Y-80086200D03*
X210574900Y-80086200D03*
D20*
X221289900Y-79425800D03*
X221289900Y-80695800D03*
X221289900Y-81965800D03*
X221289900Y-83235800D03*
X226689900Y-83235800D03*
X226689900Y-81965800D03*
X226689900Y-80695800D03*
X226689900Y-79425800D03*
D15*
X185458100Y-57010300D03*
D16*
X182918100Y-57010300D03*
X180378100Y-57010300D03*
D15*
X225298000Y-63233300D03*
X235026200Y-63233300D03*
X179654200Y-78066900D03*
D16*
X179654200Y-75526900D03*
D27*
X221208600Y-63563500D03*
X221348300Y-78028800D03*
X226479100Y-73444100D03*
X227025200Y-59715400D03*
X227596700Y-62090300D03*
X227596700Y-60807600D03*
X227596700Y-63487300D03*
X179184300Y-63284100D03*
X179197000Y-64731900D03*
X196646800Y-65430400D03*
X195402200Y-65443100D03*
X201612500Y-65430400D03*
X205752700Y-68681600D03*
X204730350Y-66338450D03*
X203822300Y-65430400D03*
X205714600Y-67335400D03*
X205720950Y-67329050D03*
X205765400Y-70078600D03*
X193967100Y-65430400D03*
X210667600Y-78232000D03*
X225386900Y-56159400D03*
D28*
X219710000Y-84353400D03*
X184429400Y-81749900D03*
X190639700Y-81762600D03*
X212064600Y-73355200D03*
X229146100Y-59982100D03*
X231089200Y-59982100D03*
X177787300Y-68770500D03*
X231635300Y-84302600D03*
X229743000Y-84289900D03*
X212750400Y-83553300D03*
X218173300Y-76022200D03*
X216306400Y-76034900D03*
X205435200Y-54394100D03*
X202933300Y-64147700D03*
X205422500Y-64173100D03*
X180555900Y-68681600D03*
X191731900Y-69494400D03*
X191731900Y-67868800D03*
X226529900Y-71551800D03*
X222961200Y-61772800D03*
X222707200Y-67005200D03*
X222973900Y-69723000D03*
X199053450Y-53257450D03*
X197345300Y-68783200D03*
X197345300Y-67005200D03*
X214706200Y-76504800D03*
X214655400Y-74676000D03*
X199002650Y-66744850D03*
X180555900Y-67881500D03*
D29*
X216433400Y-68008500D02*
X216433400Y-68351400D01*
X212719800Y-64825200D02*
X212719800Y-63898900D01*
X216433400Y-64147700D02*
X216433400Y-68008500D01*
X215900000Y-63614300D02*
X216433400Y-64147700D01*
X213004400Y-63614300D02*
X215900000Y-63614300D01*
X212719800Y-63898900D02*
X213004400Y-63614300D01*
X217852000Y-69770000D02*
X217852000Y-71399400D01*
X216433400Y-68351400D02*
X217852000Y-69770000D01*
X222859600Y-71450200D02*
X222859600Y-71031100D01*
X222859600Y-71031100D02*
X220891100Y-69062600D01*
X219722700Y-69062600D02*
X220891100Y-69062600D01*
X220891100Y-69062600D02*
X220916500Y-69088000D01*
X220552000Y-71399400D02*
X220552000Y-73342500D01*
X220552000Y-73342500D02*
X220564700Y-73355200D01*
X217893900Y-68846700D02*
X217893900Y-68859400D01*
X220552000Y-69891900D02*
X220552000Y-71399400D01*
X219722700Y-69062600D02*
X220552000Y-69891900D01*
X218097100Y-69062600D02*
X219722700Y-69062600D01*
X217893900Y-68859400D02*
X218097100Y-69062600D01*
X217093800Y-68033900D02*
X217093800Y-68046600D01*
X217093800Y-68046600D02*
X217893900Y-68846700D01*
X217893900Y-68846700D02*
X217919300Y-68872100D01*
X212069800Y-63698000D02*
X212788500Y-62979300D01*
X212788500Y-62979300D02*
X216128600Y-62979300D01*
X216128600Y-62979300D02*
X217093800Y-63944500D01*
X217093800Y-63944500D02*
X217093800Y-68033900D01*
X212069800Y-64825200D02*
X212069800Y-63698000D01*
X214675400Y-61772800D02*
X212813900Y-61772800D01*
X211419800Y-63090700D02*
X212775800Y-61734700D01*
X211419800Y-63090700D02*
X211419800Y-63119000D01*
X212813900Y-61772800D02*
X212775800Y-61734700D01*
X211419800Y-63119000D02*
X211419800Y-59255300D01*
X211419800Y-59255300D02*
X211442300Y-59232800D01*
X211419800Y-64825200D02*
X211419800Y-63119000D01*
X205422500Y-60167200D02*
X206509300Y-60167200D01*
X206509300Y-60167200D02*
X208749900Y-62407800D01*
X208749900Y-60490100D02*
X208749900Y-59194700D01*
X208749900Y-61493400D02*
X208749900Y-60490100D01*
X208749900Y-61493400D02*
X208749900Y-62407800D01*
X208749900Y-60490100D02*
X208749900Y-60464700D01*
X210119800Y-63777700D02*
X210119800Y-64825200D01*
X208749900Y-62407800D02*
X210119800Y-63777700D01*
X205440600Y-58021400D02*
X205440600Y-60149100D01*
X205440600Y-60149100D02*
X205422500Y-60167200D01*
D30*
X221199700Y-63572400D02*
X221199700Y-65011300D01*
X221199700Y-63572400D02*
X221208600Y-63563500D01*
X220192600Y-79425800D02*
X219849700Y-79082900D01*
X219849700Y-79082900D02*
X219849700Y-78587600D01*
D31*
X219849700Y-78587600D02*
X220408500Y-78028800D01*
X221348300Y-78028800D02*
X220408500Y-78028800D01*
D30*
X220192600Y-79425800D02*
X221289900Y-79425800D01*
D31*
X228075500Y-73444100D02*
X226479100Y-73444100D01*
X227596700Y-63487300D02*
X227596700Y-63474600D01*
D30*
X193326700Y-67005200D02*
X193326700Y-68783200D01*
D31*
X179197000Y-64731900D02*
X179197000Y-66275900D01*
X179197000Y-64731900D02*
X179197000Y-63296800D01*
X179197000Y-63296800D02*
X179184300Y-63284100D01*
D30*
X195402200Y-65443100D02*
X196634100Y-65443100D01*
X196634100Y-65443100D02*
X196646800Y-65430400D01*
X193967100Y-65430400D02*
X195389500Y-65430400D01*
X195389500Y-65430400D02*
X195402200Y-65443100D01*
D31*
X205740000Y-68668900D02*
X205752700Y-68681600D01*
X204730350Y-66338450D02*
X204736700Y-66344800D01*
X203835000Y-65443100D02*
X203822300Y-65430400D01*
X205740000Y-67322700D02*
X205727300Y-67322700D01*
X205727300Y-67322700D02*
X205714600Y-67335400D01*
X205720950Y-67329050D02*
X205727300Y-67335400D01*
X205727300Y-67335400D02*
X205727300Y-67348100D01*
X205752700Y-70065900D02*
X205752700Y-70027800D01*
X205765400Y-70078600D02*
X205752700Y-70065900D01*
X210674900Y-76504800D02*
X210674900Y-78224700D01*
D30*
X193326700Y-66070800D02*
X193326700Y-67005200D01*
X193326700Y-66070800D02*
X193967100Y-65430400D01*
D31*
X210674900Y-78224700D02*
X210667600Y-78232000D01*
D29*
X193326700Y-68783200D02*
X193326700Y-69195000D01*
D31*
X229146100Y-63975300D02*
X228097400Y-63975300D01*
X228097400Y-63975300D02*
X227596700Y-63474600D01*
X227056000Y-60266900D02*
X225386900Y-60266900D01*
X227596700Y-63474600D02*
X227596700Y-62090300D01*
X227596700Y-62090300D02*
X227596700Y-60807600D01*
X227596700Y-60807600D02*
X227056000Y-60266900D01*
D29*
X229146100Y-63975300D02*
X231089200Y-63975300D01*
X229928400Y-65913000D02*
X231482900Y-65913000D01*
X231482900Y-65913000D02*
X232029000Y-65366900D01*
X232029000Y-65366900D02*
X232029000Y-64414400D01*
X232029000Y-64414400D02*
X231589900Y-63975300D01*
X231589900Y-63975300D02*
X231089200Y-63975300D01*
X194386200Y-73453000D02*
X204317600Y-73453000D01*
X204317600Y-73453000D02*
X205232000Y-72538600D01*
X210769800Y-71725200D02*
X210119800Y-71725200D01*
X210769800Y-71725200D02*
X211419800Y-71725200D01*
X202933300Y-60141800D02*
X201948100Y-60141800D01*
X205232000Y-67538600D02*
X205232000Y-72538600D01*
X204127100Y-66433700D02*
X205232000Y-67538600D01*
X202222100Y-66433700D02*
X204127100Y-66433700D01*
X201091800Y-65303400D02*
X202222100Y-66433700D01*
X201091800Y-60998100D02*
X201091800Y-65303400D01*
X201948100Y-60141800D02*
X201091800Y-60998100D01*
X181843100Y-66275200D02*
X179197700Y-66275200D01*
X179197700Y-66275200D02*
X179197000Y-66275900D01*
D31*
X219735400Y-80035400D02*
X218180600Y-80035400D01*
D30*
X208080600Y-79019400D02*
X208080600Y-81428600D01*
X208080600Y-81428600D02*
X208076800Y-81432400D01*
D31*
X213274900Y-80086200D02*
X216286400Y-80086200D01*
X216286400Y-80086200D02*
X216306400Y-80066200D01*
X218173300Y-80028100D02*
X218173300Y-82011200D01*
X218173300Y-82011200D02*
X218178700Y-82016600D01*
X218173300Y-80028100D02*
X216344500Y-80028100D01*
X216344500Y-80028100D02*
X216306400Y-80066200D01*
X218180600Y-80035400D02*
X218173300Y-80028100D01*
D30*
X220014800Y-79425800D02*
X219735400Y-79705200D01*
X221289900Y-79425800D02*
X220014800Y-79425800D01*
X220040200Y-80695800D02*
X221289900Y-80695800D01*
X220002100Y-80695800D02*
X220040200Y-80695800D01*
X219735400Y-80429100D02*
X220002100Y-80695800D01*
X219735400Y-79705200D02*
X219735400Y-80035400D01*
X219735400Y-80035400D02*
X219735400Y-80429100D01*
D29*
X223332950Y-60270750D02*
X225383050Y-60270750D01*
X225383050Y-60270750D02*
X225386900Y-60266900D01*
X223349100Y-60286900D02*
X223332950Y-60270750D01*
X202940600Y-58021400D02*
X202940600Y-60134500D01*
X202940600Y-60134500D02*
X202933300Y-60141800D01*
X210662200Y-74676000D02*
X210662200Y-76492100D01*
X210662200Y-76492100D02*
X210674900Y-76504800D01*
X210769800Y-73113900D02*
X210769800Y-74568400D01*
X210769800Y-74568400D02*
X210662200Y-74676000D01*
X210769800Y-71725200D02*
X210769800Y-73113900D01*
X210769800Y-73113900D02*
X210769800Y-73202800D01*
X210119800Y-71725200D02*
X210119800Y-72985200D01*
X210337400Y-73202800D02*
X210769200Y-73202800D01*
X210119800Y-72985200D02*
X210337400Y-73202800D01*
X211419800Y-73034800D02*
X211251800Y-73202800D01*
X211251800Y-73202800D02*
X210769200Y-73202800D01*
X211419800Y-73034800D02*
X211419800Y-71725200D01*
D30*
X193218700Y-68675200D02*
X193326700Y-68783200D01*
X193256700Y-67075200D02*
X193326700Y-67005200D01*
D29*
X193459900Y-67075200D02*
X193529900Y-67005200D01*
X193421900Y-68675200D02*
X193529900Y-68783200D01*
X210769800Y-73202800D02*
X210769200Y-73202800D01*
D30*
X190343100Y-68675200D02*
X193218700Y-68675200D01*
X190343100Y-67075200D02*
X193256700Y-67075200D01*
D29*
X225386900Y-57766900D02*
X225386900Y-56159400D01*
D30*
X219710000Y-84353400D02*
X219710000Y-84023200D01*
X220497400Y-83235800D02*
X221289900Y-83235800D01*
X220497400Y-83235800D02*
X219710000Y-84023200D01*
D29*
X184428200Y-79840700D02*
X184428200Y-81748700D01*
X184428200Y-81748700D02*
X184429400Y-81749900D01*
X190628200Y-79840700D02*
X190628200Y-81751100D01*
X190628200Y-81751100D02*
X190639700Y-81762600D01*
X212069800Y-71725200D02*
X212069800Y-73350000D01*
X212069800Y-73350000D02*
X212064600Y-73355200D01*
X213029800Y-73202800D02*
X213029800Y-74543600D01*
X212902800Y-73202800D02*
X213029800Y-73202800D01*
X212719800Y-73019800D02*
X212719800Y-72918200D01*
X213369800Y-72913600D02*
X213369800Y-73015200D01*
X212719800Y-73019800D02*
X212902800Y-73202800D01*
X213369800Y-73015200D02*
X213182200Y-73202800D01*
X213029800Y-73202800D02*
X213182200Y-73202800D01*
X213369800Y-72913600D02*
X213369800Y-71725200D01*
X213369800Y-72913600D02*
X213360000Y-72923400D01*
X229146100Y-61475300D02*
X229146100Y-59982100D01*
X231089200Y-61475300D02*
X231089200Y-59982100D01*
X179197000Y-68775900D02*
X177792700Y-68775900D01*
X177792700Y-68775900D02*
X177787300Y-68770500D01*
D30*
X231635300Y-82796700D02*
X231635300Y-84302600D01*
X229743000Y-82796700D02*
X229743000Y-84289900D01*
D31*
X231635300Y-82796700D02*
X234637900Y-82796700D01*
X234637900Y-82796700D02*
X234670600Y-82829400D01*
X229743000Y-82796700D02*
X231635300Y-82796700D01*
D30*
X212745500Y-82194400D02*
X212745500Y-83548400D01*
X212745500Y-83548400D02*
X212750400Y-83553300D01*
X218173300Y-77528100D02*
X218173300Y-76022200D01*
X216306400Y-77566200D02*
X216306400Y-76034900D01*
D29*
X205440600Y-55821400D02*
X205440600Y-54399500D01*
X205440600Y-54399500D02*
X205435200Y-54394100D01*
X202933300Y-62641800D02*
X202933300Y-64147700D01*
X205422500Y-62667200D02*
X205422500Y-64173100D01*
X181843100Y-68675200D02*
X180562300Y-68675200D01*
X180562300Y-68675200D02*
X180555900Y-68681600D01*
D30*
X190343100Y-69475200D02*
X191712700Y-69475200D01*
X191712700Y-69475200D02*
X191731900Y-69494400D01*
X190343100Y-67875200D02*
X191725500Y-67875200D01*
D29*
X191725500Y-67875200D02*
X191731900Y-67868800D01*
X228037400Y-71551800D02*
X226529900Y-71551800D01*
X222682950Y-60270750D02*
X222682950Y-61494550D01*
X222682950Y-61494550D02*
X222961200Y-61772800D01*
X221199700Y-67005200D02*
X222707200Y-67005200D01*
X224528400Y-69723000D02*
X222973900Y-69723000D01*
X184428200Y-79840700D02*
X190628200Y-79840700D01*
X195826700Y-68783200D02*
X197345300Y-68783200D01*
X195826700Y-67005200D02*
X197345300Y-67005200D01*
X213174900Y-76504800D02*
X214706200Y-76504800D01*
X213162200Y-74676000D02*
X214655400Y-74676000D01*
X199053450Y-54750650D02*
X199053450Y-53257450D01*
X199002650Y-65264350D02*
X199002650Y-66744850D01*
X181843100Y-67875200D02*
X180562200Y-67875200D01*
X180562200Y-67875200D02*
X180555900Y-67881500D01*
X213162200Y-74676000D02*
X213162200Y-76492100D01*
X213162200Y-76492100D02*
X213174900Y-76504800D01*
X213029800Y-74543600D02*
X213162200Y-74676000D01*
X212719800Y-72918200D02*
X212725000Y-72923400D01*
X212719800Y-71725200D02*
X212719800Y-72918200D01*
X205380600Y-79019400D02*
X205380600Y-77842100D01*
X214019800Y-70801900D02*
X214019800Y-71725200D01*
X213258400Y-70040500D02*
X214019800Y-70801900D01*
X209651600Y-70040500D02*
X213258400Y-70040500D01*
X208737200Y-70954900D02*
X209651600Y-70040500D01*
X208737200Y-75653900D02*
X208737200Y-70954900D01*
X207289400Y-77101700D02*
X208737200Y-75653900D01*
X206121000Y-77101700D02*
X207289400Y-77101700D01*
X205380600Y-77842100D02*
X206121000Y-77101700D01*
X205380600Y-79019400D02*
X202260200Y-79019400D01*
X202260200Y-79019400D02*
X202222100Y-78981300D01*
X202196700Y-75260200D02*
X205210400Y-75260200D01*
X205210400Y-75260200D02*
X205232000Y-75238600D01*
X205232000Y-75238600D02*
X207463400Y-75238600D01*
X214669800Y-70575600D02*
X214669800Y-71725200D01*
X213537800Y-69443600D02*
X214669800Y-70575600D01*
X209384900Y-69443600D02*
X213537800Y-69443600D01*
X208127600Y-70700900D02*
X209384900Y-69443600D01*
X208127600Y-74574400D02*
X208127600Y-70700900D01*
X207463400Y-75238600D02*
X208127600Y-74574400D01*
X202222100Y-75285600D02*
X202196700Y-75260200D01*
X218499700Y-65011300D02*
X218499700Y-64118500D01*
X217175400Y-62794200D02*
X217175400Y-61772800D01*
X218499700Y-64118500D02*
X217175400Y-62794200D01*
X218499700Y-67005200D02*
X218499700Y-67979300D01*
X218973400Y-68453000D02*
X224528400Y-68453000D01*
X218499700Y-67979300D02*
X218973400Y-68453000D01*
X218499700Y-65011300D02*
X218499700Y-67005200D01*
X218496200Y-65007800D02*
X218499700Y-65011300D01*
X218496200Y-64677600D02*
X218537800Y-64719200D01*
X190343100Y-66275200D02*
X191788800Y-66275200D01*
X191788800Y-66275200D02*
X193560700Y-64503300D01*
X194500250Y-62750950D02*
X196170550Y-62750950D01*
X193560700Y-63690500D02*
X194500250Y-62750950D01*
X193560700Y-64503300D02*
X193560700Y-63690500D01*
X196170550Y-62750950D02*
X198989250Y-62750950D01*
X198989250Y-62750950D02*
X199002650Y-62764350D01*
X190343100Y-65475200D02*
X191623600Y-65475200D01*
X191623600Y-65475200D02*
X192925700Y-64173100D01*
X193840100Y-58407300D02*
X195021450Y-57225950D01*
X193840100Y-62420500D02*
X193840100Y-58407300D01*
X192925700Y-63334900D02*
X193840100Y-62420500D01*
X192925700Y-64173100D02*
X192925700Y-63334900D01*
X195021450Y-57225950D02*
X196170550Y-57225950D01*
X196170550Y-57225950D02*
X199028750Y-57225950D01*
X199028750Y-57225950D02*
X199053450Y-57250650D01*
D31*
X229743000Y-80296700D02*
X228823200Y-80296700D01*
D30*
X228790500Y-80264000D02*
X228104700Y-79578200D01*
D31*
X228823200Y-80296700D02*
X228790500Y-80264000D01*
X231635300Y-80296700D02*
X234663300Y-80296700D01*
X234663300Y-80296700D02*
X234670600Y-80289400D01*
X229743000Y-80296700D02*
X231635300Y-80296700D01*
D30*
X226689900Y-80695800D02*
X227380800Y-80695800D01*
X227380800Y-80695800D02*
X228142800Y-81457800D01*
X227952300Y-79425800D02*
X228104700Y-79578200D01*
X226689900Y-79425800D02*
X227952300Y-79425800D01*
X228104700Y-79578200D02*
X228142800Y-79616300D01*
X228142800Y-80708500D02*
X228142800Y-81457800D01*
X228142800Y-79616300D02*
X228142800Y-80708500D01*
X227952300Y-83235800D02*
X226689900Y-83235800D01*
X228142800Y-83045300D02*
X227952300Y-83235800D01*
X228142800Y-81457800D02*
X228142800Y-83045300D01*
D29*
X226441000Y-76669900D02*
X220103700Y-76669900D01*
X217864700Y-74430900D02*
X217864700Y-73355200D01*
X220103700Y-76669900D02*
X217864700Y-74430900D01*
X228062800Y-75349100D02*
X228062800Y-76102200D01*
X228062800Y-76102200D02*
X227495100Y-76669900D01*
X234861100Y-72644000D02*
X234861100Y-75107800D01*
X233299000Y-76669900D02*
X229857300Y-76669900D01*
X234861100Y-75107800D02*
X233299000Y-76669900D01*
X224891600Y-71729600D02*
X224891600Y-75120500D01*
X227876100Y-67183000D02*
X225907600Y-69151500D01*
X225907600Y-69151500D02*
X225907600Y-70713600D01*
X225907600Y-70713600D02*
X224891600Y-71729600D01*
X229928400Y-67183000D02*
X227876100Y-67183000D01*
X226441000Y-76669900D02*
X227495100Y-76669900D01*
X227495100Y-76669900D02*
X229857300Y-76669900D01*
X224891600Y-75120500D02*
X226441000Y-76669900D01*
X230762800Y-75349100D02*
X231165400Y-75349100D01*
X231165400Y-75349100D02*
X232727500Y-73787000D01*
X232727500Y-73787000D02*
X232727500Y-69405500D01*
X232727500Y-69405500D02*
X231775000Y-68453000D01*
X230775500Y-75349100D02*
X230775500Y-75751700D01*
X231775000Y-68453000D02*
X233210100Y-68453000D01*
X233210100Y-68453000D02*
X234861100Y-70104000D01*
X229928400Y-68453000D02*
X231775000Y-68453000D01*
X231775000Y-68453000D02*
X232714800Y-67513200D01*
X234975400Y-66319400D02*
X233908600Y-66319400D01*
X233908600Y-66319400D02*
X232714800Y-67513200D01*
X232714800Y-66192400D02*
X232714800Y-67513200D01*
X235026200Y-63233300D02*
X235026200Y-63881000D01*
X235026200Y-63881000D02*
X232714800Y-66192400D01*
X235064300Y-58381900D02*
X235064300Y-59169300D01*
X235064300Y-59169300D02*
X232714800Y-61518800D01*
X228765100Y-58373000D02*
X230559600Y-58373000D01*
X232714800Y-66192400D02*
X232714800Y-65087500D01*
X232714800Y-65087500D02*
X232714800Y-61518800D01*
X232714800Y-61518800D02*
X232714800Y-60528200D01*
X232714800Y-60528200D02*
X231648000Y-59461400D01*
X231648000Y-59461400D02*
X230974900Y-58788300D01*
X230559600Y-58373000D02*
X230974900Y-58788300D01*
X227355400Y-54267100D02*
X233489500Y-54267100D01*
X233489500Y-54267100D02*
X235064300Y-55841900D01*
X226695000Y-54267100D02*
X227355400Y-54267100D01*
X227355400Y-54267100D02*
X227359200Y-54267100D01*
X227359200Y-54267100D02*
X228765100Y-55673000D01*
X221382950Y-55870750D02*
X221382950Y-54791250D01*
X221907100Y-54267100D02*
X226695000Y-54267100D01*
X221382950Y-54791250D02*
X221907100Y-54267100D01*
X183184800Y-78206600D02*
X183603900Y-78625700D01*
X195567300Y-78981300D02*
X199682100Y-78981300D01*
X195211700Y-78625700D02*
X195567300Y-78981300D01*
X183603900Y-78625700D02*
X195211700Y-78625700D01*
X184893100Y-72525200D02*
X184893100Y-73443998D01*
X181952900Y-76974700D02*
X183184800Y-78206600D01*
X183184800Y-78206600D02*
X183235600Y-78257400D01*
X181952900Y-75044300D02*
X181952900Y-76974700D01*
X183337200Y-73660000D02*
X181952900Y-75044300D01*
X184677098Y-73660000D02*
X183337200Y-73660000D01*
X184893100Y-73443998D02*
X184677098Y-73660000D01*
X183311800Y-77495400D02*
X183654700Y-77838300D01*
X185693100Y-73666300D02*
X185115200Y-74244200D01*
X185115200Y-74244200D02*
X183616600Y-74244200D01*
X183616600Y-74244200D02*
X182549800Y-75311000D01*
X182549800Y-75311000D02*
X182549800Y-76733400D01*
X182549800Y-76733400D02*
X183311800Y-77495400D01*
X185693100Y-72525200D02*
X185693100Y-73666300D01*
X196570600Y-75260200D02*
X199656700Y-75260200D01*
X195745100Y-76085700D02*
X196570600Y-75260200D01*
X195745100Y-77177900D02*
X195745100Y-76085700D01*
X195084700Y-77838300D02*
X195745100Y-77177900D01*
X183654700Y-77838300D02*
X195084700Y-77838300D01*
X193471800Y-71983600D02*
X200279000Y-71983600D01*
X187293100Y-74313900D02*
X187744100Y-74764900D01*
X187744100Y-74764900D02*
X192392300Y-74764900D01*
X192392300Y-74764900D02*
X193014600Y-74142600D01*
X193014600Y-74142600D02*
X193014600Y-72440800D01*
X193014600Y-72440800D02*
X193471800Y-71983600D01*
X187293100Y-72525200D02*
X187293100Y-74313900D01*
X200837800Y-71424800D02*
X202209400Y-71424800D01*
X200279000Y-71983600D02*
X200837800Y-71424800D01*
X198958200Y-71348600D02*
X199745600Y-71348600D01*
X188093100Y-73774098D02*
X188506100Y-74187098D01*
X188506100Y-74187098D02*
X191947800Y-74187098D01*
X191947800Y-74187098D02*
X192341500Y-73793398D01*
X192341500Y-73793398D02*
X192341500Y-72136000D01*
X192341500Y-72136000D02*
X193128900Y-71348600D01*
X193128900Y-71348600D02*
X198958200Y-71348600D01*
X188093100Y-72525200D02*
X188093100Y-73774098D01*
X199745600Y-71348600D02*
X202209400Y-68884800D01*
X185458100Y-57010300D02*
X185458100Y-58877200D01*
X184093100Y-60242200D02*
X184093100Y-64025200D01*
X185458100Y-58877200D02*
X184093100Y-60242200D01*
X182918100Y-57010300D02*
X182918100Y-59651900D01*
X183293100Y-60026900D02*
X183293100Y-64025200D01*
X182918100Y-59651900D02*
X183293100Y-60026900D01*
X180352700Y-57035700D02*
X180352700Y-59283600D01*
X181057900Y-65475200D02*
X180352700Y-64770000D01*
X181057900Y-65475200D02*
X181843100Y-65475200D01*
X180352700Y-63715900D02*
X180352700Y-64770000D01*
X180352700Y-59283600D02*
X180352700Y-63715900D01*
X180352700Y-57035700D02*
X180378100Y-57010300D01*
X179654200Y-78066900D02*
X178396900Y-78066900D01*
X179317900Y-70275200D02*
X181843100Y-70275200D01*
X177507900Y-72085200D02*
X179317900Y-70275200D01*
X177507900Y-77177900D02*
X177507900Y-72085200D01*
X178396900Y-78066900D02*
X177507900Y-77177900D01*
X181843100Y-71075200D02*
X180397500Y-71075200D01*
X179654200Y-71818500D02*
X179654200Y-75526900D01*
X180397500Y-71075200D02*
X179654200Y-71818500D01*
X225298000Y-63233300D02*
X223393000Y-63233300D01*
X222032950Y-61873250D02*
X223380300Y-63220600D01*
X222032950Y-61873250D02*
X222032950Y-60270750D01*
X223393000Y-63233300D02*
X223380300Y-63220600D01*
X230737400Y-71551800D02*
X231584500Y-71551800D01*
X231584500Y-71551800D02*
X232079800Y-71056500D01*
X229928400Y-69723000D02*
X231394000Y-69723000D01*
X231609900Y-73444100D02*
X230775500Y-73444100D01*
X232079800Y-72974200D02*
X231609900Y-73444100D01*
X232079800Y-70408800D02*
X232079800Y-71056500D01*
X232079800Y-71056500D02*
X232079800Y-72974200D01*
X231394000Y-69723000D02*
X232079800Y-70408800D01*
X184428200Y-76140700D02*
X190628200Y-76140700D01*
X190628200Y-76140700D02*
X194373900Y-76140700D01*
X194373900Y-76140700D02*
X194386200Y-76153000D01*
X186493100Y-72525200D02*
X186493100Y-74339400D01*
X184428200Y-75413800D02*
X184428200Y-76140700D01*
X184950100Y-74891900D02*
X184428200Y-75413800D01*
X185940600Y-74891900D02*
X184950100Y-74891900D01*
X186493100Y-74339400D02*
X185940600Y-74891900D01*
X221382950Y-62150350D02*
X221364450Y-62150350D01*
X220713300Y-62801500D02*
X219468700Y-62801500D01*
X221364450Y-62150350D02*
X220713300Y-62801500D01*
X222669100Y-64223900D02*
X222669100Y-63436500D01*
X223202500Y-65913000D02*
X222656400Y-65366900D01*
X222656400Y-65366900D02*
X222656400Y-64236600D01*
X222656400Y-64236600D02*
X222669100Y-64223900D01*
X224528400Y-65913000D02*
X223202500Y-65913000D01*
X221382950Y-62150350D02*
X221382950Y-60270750D01*
X222669100Y-63436500D02*
X221382950Y-62150350D01*
X225882200Y-66979800D02*
X225882200Y-66154300D01*
X224528400Y-67183000D02*
X225679000Y-67183000D01*
X225882200Y-66979800D02*
X225679000Y-67183000D01*
X225653600Y-65925700D02*
X225882200Y-66154300D01*
X225653600Y-65925700D02*
X225653600Y-65913000D01*
X224528400Y-65913000D02*
X225653600Y-65913000D01*
X225653600Y-65913000D02*
X225679000Y-65938400D01*
X205498700Y-52527200D02*
X206565500Y-52527200D01*
X188093100Y-63087500D02*
X189255400Y-61925200D01*
X189255400Y-61925200D02*
X191770000Y-61925200D01*
X191770000Y-61925200D02*
X193027300Y-60667900D01*
X193027300Y-60667900D02*
X193027300Y-55638700D01*
X193027300Y-55638700D02*
X196138800Y-52527200D01*
X196138800Y-52527200D02*
X205498700Y-52527200D01*
X188093100Y-64025200D02*
X188093100Y-63087500D01*
X222682950Y-56793250D02*
X222682950Y-55870750D01*
X221945200Y-57531000D02*
X222682950Y-56793250D01*
X209778600Y-57531000D02*
X221945200Y-57531000D01*
X207733900Y-55486300D02*
X209778600Y-57531000D01*
X207733900Y-53695600D02*
X207733900Y-55486300D01*
X206565500Y-52527200D02*
X207733900Y-53695600D01*
X192297400Y-71075200D02*
X192551400Y-71075200D01*
X200355200Y-57518300D02*
X200355200Y-66624200D01*
X200355200Y-66624200D02*
X199974200Y-67005200D01*
X190343100Y-71075200D02*
X192297400Y-71075200D01*
X202052100Y-55821400D02*
X202940600Y-55821400D01*
X200964800Y-56908700D02*
X202052100Y-55821400D01*
X199974200Y-67830700D02*
X199974200Y-67005200D01*
X197345300Y-70459600D02*
X199974200Y-67830700D01*
X200964800Y-56908700D02*
X200355200Y-57518300D01*
X193167000Y-70459600D02*
X197345300Y-70459600D01*
X192551400Y-71075200D02*
X193167000Y-70459600D01*
D30*
X210574900Y-80086200D02*
X210574900Y-82165000D01*
X210574900Y-82165000D02*
X210545500Y-82194400D01*
X215678700Y-82016600D02*
X215678700Y-82760500D01*
X220129100Y-81965800D02*
X221289900Y-81965800D01*
X219773500Y-82321400D02*
X220129100Y-81965800D01*
X219773500Y-82905600D02*
X219773500Y-82321400D01*
X219265500Y-83413600D02*
X219773500Y-82905600D01*
X216331800Y-83413600D02*
X219265500Y-83413600D01*
X215678700Y-82760500D02*
X216331800Y-83413600D01*
D32*
G36*
X206970902Y-80207727D02*
X207204291Y-80304400D01*
X207329044Y-80304400D01*
X207284888Y-80460883D01*
X208076800Y-81252795D01*
X208868712Y-80460883D01*
X208824556Y-80304400D01*
X208956909Y-80304400D01*
X209177460Y-80213045D01*
X209177460Y-80676929D01*
X209048317Y-80640488D01*
X208256405Y-81432400D01*
X209048317Y-82224312D01*
X209284247Y-82157738D01*
X209293844Y-82727800D01*
X208600489Y-82727800D01*
X208800723Y-82644860D01*
X208868712Y-82403917D01*
X208076800Y-81612005D01*
X207284888Y-82403917D01*
X207352877Y-82644860D01*
X207585926Y-82727800D01*
X206843634Y-82727800D01*
X206837249Y-82090920D01*
X206864340Y-82156323D01*
X207105283Y-82224312D01*
X207897195Y-81432400D01*
X207105283Y-80640488D01*
X206864340Y-80708477D01*
X206824512Y-80820388D01*
X206816825Y-80053651D01*
X206970902Y-80207727D01*
X206970902Y-80207727D01*
G37*
X206970902Y-80207727D02*
X207204291Y-80304400D01*
X207329044Y-80304400D01*
X207284888Y-80460883D01*
X208076800Y-81252795D01*
X208868712Y-80460883D01*
X208824556Y-80304400D01*
X208956909Y-80304400D01*
X209177460Y-80213045D01*
X209177460Y-80676929D01*
X209048317Y-80640488D01*
X208256405Y-81432400D01*
X209048317Y-82224312D01*
X209284247Y-82157738D01*
X209293844Y-82727800D01*
X208600489Y-82727800D01*
X208800723Y-82644860D01*
X208868712Y-82403917D01*
X208076800Y-81612005D01*
X207284888Y-82403917D01*
X207352877Y-82644860D01*
X207585926Y-82727800D01*
X206843634Y-82727800D01*
X206837249Y-82090920D01*
X206864340Y-82156323D01*
X207105283Y-82224312D01*
X207897195Y-81432400D01*
X207105283Y-80640488D01*
X206864340Y-80708477D01*
X206824512Y-80820388D01*
X206816825Y-80053651D01*
X206970902Y-80207727D01*
G36*
X210031473Y-72684898D02*
X210210101Y-72863527D01*
X210332630Y-72914280D01*
X210378550Y-72960200D01*
X210511050Y-72960200D01*
X210556970Y-72914280D01*
X210679499Y-72863527D01*
X210769800Y-72773225D01*
X210860101Y-72863527D01*
X210982630Y-72914280D01*
X211028550Y-72960200D01*
X211161050Y-72960200D01*
X211206970Y-72914280D01*
X211234800Y-72902753D01*
X211234800Y-72915443D01*
X211129762Y-73168401D01*
X211129546Y-73416000D01*
X210947950Y-73416000D01*
X210789200Y-73574750D01*
X210789200Y-74549000D01*
X210809200Y-74549000D01*
X210809200Y-74803000D01*
X210789200Y-74803000D01*
X210789200Y-75777250D01*
X210801900Y-75789950D01*
X210801900Y-76377800D01*
X210821900Y-76377800D01*
X210821900Y-76631800D01*
X210801900Y-76631800D01*
X210801900Y-77606050D01*
X210960650Y-77764800D01*
X211551209Y-77764800D01*
X211617575Y-77737310D01*
X211608844Y-78357211D01*
X211618153Y-78406758D01*
X211646004Y-78448778D01*
X211688010Y-78476653D01*
X211735831Y-78486000D01*
X215065910Y-78486000D01*
X215078238Y-78551517D01*
X215188800Y-78723335D01*
X215188800Y-78828900D01*
X215198806Y-78878310D01*
X215207922Y-78891653D01*
X215143073Y-78956502D01*
X215046400Y-79189891D01*
X215046400Y-79780450D01*
X215205150Y-79939200D01*
X216179400Y-79939200D01*
X216179400Y-79919200D01*
X216433400Y-79919200D01*
X216433400Y-79939200D01*
X217407650Y-79939200D01*
X217445750Y-79901100D01*
X218046300Y-79901100D01*
X218046300Y-79881100D01*
X218300300Y-79881100D01*
X218300300Y-79901100D01*
X219274550Y-79901100D01*
X219433300Y-79742350D01*
X219433300Y-79711550D01*
X219879900Y-79711550D01*
X219879900Y-79852110D01*
X219966342Y-80060800D01*
X219879900Y-80269490D01*
X219879900Y-80410050D01*
X220038650Y-80568800D01*
X221162900Y-80568800D01*
X221162900Y-79552800D01*
X220038650Y-79552800D01*
X219879900Y-79711550D01*
X219433300Y-79711550D01*
X219433300Y-79151791D01*
X219352159Y-78955900D01*
X219897956Y-78955900D01*
X219879900Y-78999490D01*
X219879900Y-79140050D01*
X220038650Y-79298800D01*
X221162900Y-79298800D01*
X221162900Y-79278800D01*
X221416900Y-79278800D01*
X221416900Y-79298800D01*
X221436900Y-79298800D01*
X221436900Y-79552800D01*
X221416900Y-79552800D01*
X221416900Y-80568800D01*
X221436900Y-80568800D01*
X221436900Y-80822800D01*
X221416900Y-80822800D01*
X221416900Y-80842800D01*
X221162900Y-80842800D01*
X221162900Y-80822800D01*
X220038650Y-80822800D01*
X219879900Y-80981550D01*
X219879900Y-81122110D01*
X219883061Y-81129741D01*
X219790425Y-81148167D01*
X219726171Y-81191100D01*
X219532969Y-81191100D01*
X219467027Y-81031901D01*
X219405837Y-80970711D01*
X219433300Y-80904409D01*
X219433300Y-80313850D01*
X219274550Y-80155100D01*
X218300300Y-80155100D01*
X218300300Y-81254350D01*
X218305700Y-81259750D01*
X218305700Y-81889600D01*
X218325700Y-81889600D01*
X218325700Y-82143600D01*
X218305700Y-82143600D01*
X218305700Y-82163600D01*
X218051700Y-82163600D01*
X218051700Y-82143600D01*
X218031700Y-82143600D01*
X218031700Y-81889600D01*
X218051700Y-81889600D01*
X218051700Y-80915350D01*
X218046300Y-80909950D01*
X218046300Y-80155100D01*
X217072050Y-80155100D01*
X217033950Y-80193200D01*
X216433400Y-80193200D01*
X216433400Y-80213200D01*
X216179400Y-80213200D01*
X216179400Y-80193200D01*
X215205150Y-80193200D01*
X215046400Y-80351950D01*
X215046400Y-80744160D01*
X214928700Y-80744160D01*
X214693383Y-80788438D01*
X214659900Y-80809984D01*
X214659900Y-80371950D01*
X214501150Y-80213200D01*
X213401900Y-80213200D01*
X213401900Y-80233200D01*
X213147900Y-80233200D01*
X213147900Y-80213200D01*
X213127900Y-80213200D01*
X213127900Y-79959200D01*
X213147900Y-79959200D01*
X213147900Y-78959950D01*
X213401900Y-78959950D01*
X213401900Y-79959200D01*
X214501150Y-79959200D01*
X214659900Y-79800450D01*
X214659900Y-79309890D01*
X214563227Y-79076501D01*
X214384598Y-78897873D01*
X214151209Y-78801200D01*
X213560650Y-78801200D01*
X213401900Y-78959950D01*
X213147900Y-78959950D01*
X212989150Y-78801200D01*
X212398591Y-78801200D01*
X212165202Y-78897873D01*
X211986573Y-79076501D01*
X211963314Y-79132654D01*
X211963236Y-79120206D01*
X211952921Y-79070860D01*
X211924221Y-79029414D01*
X211881657Y-79002399D01*
X211836238Y-78994000D01*
X211794936Y-78994000D01*
X211788990Y-78984759D01*
X211576790Y-78839769D01*
X211324900Y-78788760D01*
X209824900Y-78788760D01*
X209589583Y-78833038D01*
X209465600Y-78912819D01*
X209465600Y-78892398D01*
X209306852Y-78892398D01*
X209465600Y-78733650D01*
X209465600Y-78243090D01*
X209368927Y-78009701D01*
X209190298Y-77831073D01*
X208956909Y-77734400D01*
X208366350Y-77734400D01*
X208207600Y-77893150D01*
X208207600Y-78892400D01*
X208227600Y-78892400D01*
X208227600Y-79146400D01*
X208207600Y-79146400D01*
X208207600Y-79166400D01*
X207953600Y-79166400D01*
X207953600Y-79146400D01*
X207933600Y-79146400D01*
X207933600Y-78892400D01*
X207953600Y-78892400D01*
X207953600Y-77893150D01*
X207803553Y-77743103D01*
X207879834Y-77692134D01*
X208781418Y-76790550D01*
X209289900Y-76790550D01*
X209289900Y-77256110D01*
X209386573Y-77489499D01*
X209565202Y-77668127D01*
X209798591Y-77764800D01*
X210389150Y-77764800D01*
X210547900Y-77606050D01*
X210547900Y-76631800D01*
X209448650Y-76631800D01*
X209289900Y-76790550D01*
X208781418Y-76790550D01*
X209105268Y-76466700D01*
X209202645Y-76466700D01*
X209252055Y-76456694D01*
X209293680Y-76428253D01*
X209320960Y-76385859D01*
X209329632Y-76341537D01*
X209330812Y-76259962D01*
X209448650Y-76377800D01*
X210547900Y-76377800D01*
X210547900Y-75403550D01*
X210535200Y-75390850D01*
X210535200Y-74803000D01*
X210515200Y-74803000D01*
X210515200Y-74549000D01*
X210535200Y-74549000D01*
X210535200Y-73574750D01*
X210376450Y-73416000D01*
X209785891Y-73416000D01*
X209572200Y-73504514D01*
X209572200Y-72868539D01*
X209793490Y-72960200D01*
X209861050Y-72960200D01*
X210019800Y-72801450D01*
X210019800Y-72656717D01*
X210031473Y-72684898D01*
X210031473Y-72684898D01*
G37*
X210031473Y-72684898D02*
X210210101Y-72863527D01*
X210332630Y-72914280D01*
X210378550Y-72960200D01*
X210511050Y-72960200D01*
X210556970Y-72914280D01*
X210679499Y-72863527D01*
X210769800Y-72773225D01*
X210860101Y-72863527D01*
X210982630Y-72914280D01*
X211028550Y-72960200D01*
X211161050Y-72960200D01*
X211206970Y-72914280D01*
X211234800Y-72902753D01*
X211234800Y-72915443D01*
X211129762Y-73168401D01*
X211129546Y-73416000D01*
X210947950Y-73416000D01*
X210789200Y-73574750D01*
X210789200Y-74549000D01*
X210809200Y-74549000D01*
X210809200Y-74803000D01*
X210789200Y-74803000D01*
X210789200Y-75777250D01*
X210801900Y-75789950D01*
X210801900Y-76377800D01*
X210821900Y-76377800D01*
X210821900Y-76631800D01*
X210801900Y-76631800D01*
X210801900Y-77606050D01*
X210960650Y-77764800D01*
X211551209Y-77764800D01*
X211617575Y-77737310D01*
X211608844Y-78357211D01*
X211618153Y-78406758D01*
X211646004Y-78448778D01*
X211688010Y-78476653D01*
X211735831Y-78486000D01*
X215065910Y-78486000D01*
X215078238Y-78551517D01*
X215188800Y-78723335D01*
X215188800Y-78828900D01*
X215198806Y-78878310D01*
X215207922Y-78891653D01*
X215143073Y-78956502D01*
X215046400Y-79189891D01*
X215046400Y-79780450D01*
X215205150Y-79939200D01*
X216179400Y-79939200D01*
X216179400Y-79919200D01*
X216433400Y-79919200D01*
X216433400Y-79939200D01*
X217407650Y-79939200D01*
X217445750Y-79901100D01*
X218046300Y-79901100D01*
X218046300Y-79881100D01*
X218300300Y-79881100D01*
X218300300Y-79901100D01*
X219274550Y-79901100D01*
X219433300Y-79742350D01*
X219433300Y-79711550D01*
X219879900Y-79711550D01*
X219879900Y-79852110D01*
X219966342Y-80060800D01*
X219879900Y-80269490D01*
X219879900Y-80410050D01*
X220038650Y-80568800D01*
X221162900Y-80568800D01*
X221162900Y-79552800D01*
X220038650Y-79552800D01*
X219879900Y-79711550D01*
X219433300Y-79711550D01*
X219433300Y-79151791D01*
X219352159Y-78955900D01*
X219897956Y-78955900D01*
X219879900Y-78999490D01*
X219879900Y-79140050D01*
X220038650Y-79298800D01*
X221162900Y-79298800D01*
X221162900Y-79278800D01*
X221416900Y-79278800D01*
X221416900Y-79298800D01*
X221436900Y-79298800D01*
X221436900Y-79552800D01*
X221416900Y-79552800D01*
X221416900Y-80568800D01*
X221436900Y-80568800D01*
X221436900Y-80822800D01*
X221416900Y-80822800D01*
X221416900Y-80842800D01*
X221162900Y-80842800D01*
X221162900Y-80822800D01*
X220038650Y-80822800D01*
X219879900Y-80981550D01*
X219879900Y-81122110D01*
X219883061Y-81129741D01*
X219790425Y-81148167D01*
X219726171Y-81191100D01*
X219532969Y-81191100D01*
X219467027Y-81031901D01*
X219405837Y-80970711D01*
X219433300Y-80904409D01*
X219433300Y-80313850D01*
X219274550Y-80155100D01*
X218300300Y-80155100D01*
X218300300Y-81254350D01*
X218305700Y-81259750D01*
X218305700Y-81889600D01*
X218325700Y-81889600D01*
X218325700Y-82143600D01*
X218305700Y-82143600D01*
X218305700Y-82163600D01*
X218051700Y-82163600D01*
X218051700Y-82143600D01*
X218031700Y-82143600D01*
X218031700Y-81889600D01*
X218051700Y-81889600D01*
X218051700Y-80915350D01*
X218046300Y-80909950D01*
X218046300Y-80155100D01*
X217072050Y-80155100D01*
X217033950Y-80193200D01*
X216433400Y-80193200D01*
X216433400Y-80213200D01*
X216179400Y-80213200D01*
X216179400Y-80193200D01*
X215205150Y-80193200D01*
X215046400Y-80351950D01*
X215046400Y-80744160D01*
X214928700Y-80744160D01*
X214693383Y-80788438D01*
X214659900Y-80809984D01*
X214659900Y-80371950D01*
X214501150Y-80213200D01*
X213401900Y-80213200D01*
X213401900Y-80233200D01*
X213147900Y-80233200D01*
X213147900Y-80213200D01*
X213127900Y-80213200D01*
X213127900Y-79959200D01*
X213147900Y-79959200D01*
X213147900Y-78959950D01*
X213401900Y-78959950D01*
X213401900Y-79959200D01*
X214501150Y-79959200D01*
X214659900Y-79800450D01*
X214659900Y-79309890D01*
X214563227Y-79076501D01*
X214384598Y-78897873D01*
X214151209Y-78801200D01*
X213560650Y-78801200D01*
X213401900Y-78959950D01*
X213147900Y-78959950D01*
X212989150Y-78801200D01*
X212398591Y-78801200D01*
X212165202Y-78897873D01*
X211986573Y-79076501D01*
X211963314Y-79132654D01*
X211963236Y-79120206D01*
X211952921Y-79070860D01*
X211924221Y-79029414D01*
X211881657Y-79002399D01*
X211836238Y-78994000D01*
X211794936Y-78994000D01*
X211788990Y-78984759D01*
X211576790Y-78839769D01*
X211324900Y-78788760D01*
X209824900Y-78788760D01*
X209589583Y-78833038D01*
X209465600Y-78912819D01*
X209465600Y-78892398D01*
X209306852Y-78892398D01*
X209465600Y-78733650D01*
X209465600Y-78243090D01*
X209368927Y-78009701D01*
X209190298Y-77831073D01*
X208956909Y-77734400D01*
X208366350Y-77734400D01*
X208207600Y-77893150D01*
X208207600Y-78892400D01*
X208227600Y-78892400D01*
X208227600Y-79146400D01*
X208207600Y-79146400D01*
X208207600Y-79166400D01*
X207953600Y-79166400D01*
X207953600Y-79146400D01*
X207933600Y-79146400D01*
X207933600Y-78892400D01*
X207953600Y-78892400D01*
X207953600Y-77893150D01*
X207803553Y-77743103D01*
X207879834Y-77692134D01*
X208781418Y-76790550D01*
X209289900Y-76790550D01*
X209289900Y-77256110D01*
X209386573Y-77489499D01*
X209565202Y-77668127D01*
X209798591Y-77764800D01*
X210389150Y-77764800D01*
X210547900Y-77606050D01*
X210547900Y-76631800D01*
X209448650Y-76631800D01*
X209289900Y-76790550D01*
X208781418Y-76790550D01*
X209105268Y-76466700D01*
X209202645Y-76466700D01*
X209252055Y-76456694D01*
X209293680Y-76428253D01*
X209320960Y-76385859D01*
X209329632Y-76341537D01*
X209330812Y-76259962D01*
X209448650Y-76377800D01*
X210547900Y-76377800D01*
X210547900Y-75403550D01*
X210535200Y-75390850D01*
X210535200Y-74803000D01*
X210515200Y-74803000D01*
X210515200Y-74549000D01*
X210535200Y-74549000D01*
X210535200Y-73574750D01*
X210376450Y-73416000D01*
X209785891Y-73416000D01*
X209572200Y-73504514D01*
X209572200Y-72868539D01*
X209793490Y-72960200D01*
X209861050Y-72960200D01*
X210019800Y-72801450D01*
X210019800Y-72656717D01*
X210031473Y-72684898D01*
G36*
X210093550Y-71598200D02*
X210916800Y-71598200D01*
X210916800Y-71852200D01*
X210093550Y-71852200D01*
X210019800Y-71925950D01*
X210019800Y-71852200D01*
X209972800Y-71852200D01*
X209972800Y-71598200D01*
X210019800Y-71598200D01*
X210019800Y-71578200D01*
X210073550Y-71578200D01*
X210093550Y-71598200D01*
X210093550Y-71598200D01*
G37*
X210093550Y-71598200D02*
X210916800Y-71598200D01*
X210916800Y-71852200D01*
X210093550Y-71852200D01*
X210019800Y-71925950D01*
X210019800Y-71852200D01*
X209972800Y-71852200D01*
X209972800Y-71598200D01*
X210019800Y-71598200D01*
X210019800Y-71578200D01*
X210073550Y-71578200D01*
X210093550Y-71598200D01*
G36*
X204025500Y-57161701D02*
X203993160Y-57321400D01*
X203993160Y-58721400D01*
X204025500Y-58893272D01*
X204025500Y-61290200D01*
X203784665Y-61290200D01*
X203558300Y-61244360D01*
X202308300Y-61244360D01*
X202072983Y-61288638D01*
X202070556Y-61290200D01*
X201955400Y-61290200D01*
X201905990Y-61300206D01*
X201864365Y-61328647D01*
X201837085Y-61371041D01*
X201828400Y-61417200D01*
X201828400Y-61469361D01*
X201711869Y-61639910D01*
X201660860Y-61891800D01*
X201660860Y-63391800D01*
X201705138Y-63627117D01*
X201828400Y-63818672D01*
X201828400Y-64808100D01*
X201838406Y-64857510D01*
X201866847Y-64899135D01*
X201909241Y-64926415D01*
X201955400Y-64935100D01*
X202398189Y-64935100D01*
X202402973Y-64939892D01*
X202746501Y-65082538D01*
X203118467Y-65082862D01*
X203462243Y-64940817D01*
X203467970Y-64935100D01*
X204862034Y-64935100D01*
X204892173Y-64965292D01*
X205235701Y-65107938D01*
X205607667Y-65108262D01*
X205951443Y-64966217D01*
X205982614Y-64935100D01*
X206286284Y-64935100D01*
X206298759Y-73530033D01*
X206293370Y-73559134D01*
X206295935Y-74002890D01*
X206133890Y-73892169D01*
X205882000Y-73841160D01*
X204582000Y-73841160D01*
X204346683Y-73885438D01*
X204130559Y-74024510D01*
X203985569Y-74236710D01*
X203958952Y-74368151D01*
X203686164Y-74367813D01*
X203649862Y-74174883D01*
X203510790Y-73958759D01*
X203298590Y-73813769D01*
X203046700Y-73762760D01*
X201346700Y-73762760D01*
X201111383Y-73807038D01*
X200895259Y-73946110D01*
X200750269Y-74158310D01*
X200736614Y-74225741D01*
X200706754Y-74181053D01*
X200224985Y-73859146D01*
X199656700Y-73746107D01*
X199088415Y-73859146D01*
X198606646Y-74181053D01*
X198486152Y-74361386D01*
X196151657Y-74358500D01*
X196102235Y-74368445D01*
X196071415Y-74386934D01*
X195903211Y-74523600D01*
X193744973Y-74523600D01*
X193786039Y-74462141D01*
X193849600Y-74142600D01*
X193849600Y-72818600D01*
X200279000Y-72818600D01*
X200598541Y-72755039D01*
X200819036Y-72607709D01*
X200895310Y-72726241D01*
X201107510Y-72871231D01*
X201359400Y-72922240D01*
X203059400Y-72922240D01*
X203294717Y-72877962D01*
X203510841Y-72738890D01*
X203655831Y-72526690D01*
X203675796Y-72428100D01*
X204165200Y-72428100D01*
X204214610Y-72418094D01*
X204256235Y-72389653D01*
X204283515Y-72347259D01*
X204292200Y-72301100D01*
X204292200Y-67398900D01*
X204282194Y-67349490D01*
X204253753Y-67307865D01*
X204211359Y-67280585D01*
X204165200Y-67271900D01*
X200926700Y-67271900D01*
X200926700Y-67233568D01*
X200945634Y-67214634D01*
X200961849Y-67190367D01*
X201126639Y-66943741D01*
X201190200Y-66624200D01*
X201190200Y-57864168D01*
X201928483Y-57125885D01*
X202140600Y-57168840D01*
X203740600Y-57168840D01*
X203975917Y-57124562D01*
X204025500Y-57092656D01*
X204025500Y-57161701D01*
X204025500Y-57161701D01*
G37*
X204025500Y-57161701D02*
X203993160Y-57321400D01*
X203993160Y-58721400D01*
X204025500Y-58893272D01*
X204025500Y-61290200D01*
X203784665Y-61290200D01*
X203558300Y-61244360D01*
X202308300Y-61244360D01*
X202072983Y-61288638D01*
X202070556Y-61290200D01*
X201955400Y-61290200D01*
X201905990Y-61300206D01*
X201864365Y-61328647D01*
X201837085Y-61371041D01*
X201828400Y-61417200D01*
X201828400Y-61469361D01*
X201711869Y-61639910D01*
X201660860Y-61891800D01*
X201660860Y-63391800D01*
X201705138Y-63627117D01*
X201828400Y-63818672D01*
X201828400Y-64808100D01*
X201838406Y-64857510D01*
X201866847Y-64899135D01*
X201909241Y-64926415D01*
X201955400Y-64935100D01*
X202398189Y-64935100D01*
X202402973Y-64939892D01*
X202746501Y-65082538D01*
X203118467Y-65082862D01*
X203462243Y-64940817D01*
X203467970Y-64935100D01*
X204862034Y-64935100D01*
X204892173Y-64965292D01*
X205235701Y-65107938D01*
X205607667Y-65108262D01*
X205951443Y-64966217D01*
X205982614Y-64935100D01*
X206286284Y-64935100D01*
X206298759Y-73530033D01*
X206293370Y-73559134D01*
X206295935Y-74002890D01*
X206133890Y-73892169D01*
X205882000Y-73841160D01*
X204582000Y-73841160D01*
X204346683Y-73885438D01*
X204130559Y-74024510D01*
X203985569Y-74236710D01*
X203958952Y-74368151D01*
X203686164Y-74367813D01*
X203649862Y-74174883D01*
X203510790Y-73958759D01*
X203298590Y-73813769D01*
X203046700Y-73762760D01*
X201346700Y-73762760D01*
X201111383Y-73807038D01*
X200895259Y-73946110D01*
X200750269Y-74158310D01*
X200736614Y-74225741D01*
X200706754Y-74181053D01*
X200224985Y-73859146D01*
X199656700Y-73746107D01*
X199088415Y-73859146D01*
X198606646Y-74181053D01*
X198486152Y-74361386D01*
X196151657Y-74358500D01*
X196102235Y-74368445D01*
X196071415Y-74386934D01*
X195903211Y-74523600D01*
X193744973Y-74523600D01*
X193786039Y-74462141D01*
X193849600Y-74142600D01*
X193849600Y-72818600D01*
X200279000Y-72818600D01*
X200598541Y-72755039D01*
X200819036Y-72607709D01*
X200895310Y-72726241D01*
X201107510Y-72871231D01*
X201359400Y-72922240D01*
X203059400Y-72922240D01*
X203294717Y-72877962D01*
X203510841Y-72738890D01*
X203655831Y-72526690D01*
X203675796Y-72428100D01*
X204165200Y-72428100D01*
X204214610Y-72418094D01*
X204256235Y-72389653D01*
X204283515Y-72347259D01*
X204292200Y-72301100D01*
X204292200Y-67398900D01*
X204282194Y-67349490D01*
X204253753Y-67307865D01*
X204211359Y-67280585D01*
X204165200Y-67271900D01*
X200926700Y-67271900D01*
X200926700Y-67233568D01*
X200945634Y-67214634D01*
X200961849Y-67190367D01*
X201126639Y-66943741D01*
X201190200Y-66624200D01*
X201190200Y-57864168D01*
X201928483Y-57125885D01*
X202140600Y-57168840D01*
X203740600Y-57168840D01*
X203975917Y-57124562D01*
X204025500Y-57092656D01*
X204025500Y-57161701D01*
G36*
X227511938Y-59358317D02*
X227651010Y-59574441D01*
X227863210Y-59719431D01*
X228066600Y-59760619D01*
X228066600Y-60265687D01*
X227924669Y-60473410D01*
X227873660Y-60725300D01*
X227873660Y-62225300D01*
X227917938Y-62460617D01*
X228057010Y-62676741D01*
X228066600Y-62683294D01*
X228066600Y-62781775D01*
X227982773Y-62865602D01*
X227886100Y-63098991D01*
X227886100Y-63689550D01*
X228044850Y-63848300D01*
X229019100Y-63848300D01*
X229019100Y-63828300D01*
X229273100Y-63828300D01*
X229273100Y-63848300D01*
X230962200Y-63848300D01*
X230962200Y-63828300D01*
X231216200Y-63828300D01*
X231216200Y-63848300D01*
X231236200Y-63848300D01*
X231236200Y-64102300D01*
X231216200Y-64102300D01*
X231216200Y-64122300D01*
X230962200Y-64122300D01*
X230962200Y-64102300D01*
X229273100Y-64102300D01*
X229273100Y-64122300D01*
X229019100Y-64122300D01*
X229019100Y-64102300D01*
X228044850Y-64102300D01*
X227886100Y-64261050D01*
X227886100Y-64851609D01*
X227982773Y-65084998D01*
X228161401Y-65263627D01*
X228394790Y-65360300D01*
X228570753Y-65360300D01*
X228518400Y-65486690D01*
X228518400Y-65627250D01*
X228677150Y-65786000D01*
X229801400Y-65786000D01*
X229801400Y-65766000D01*
X230055400Y-65766000D01*
X230055400Y-65786000D01*
X231179650Y-65786000D01*
X231338400Y-65627250D01*
X231338400Y-65486690D01*
X231241727Y-65253301D01*
X231216202Y-65227776D01*
X231216202Y-65201552D01*
X231374950Y-65360300D01*
X231840510Y-65360300D01*
X231879800Y-65344026D01*
X231879800Y-66446400D01*
X231294042Y-66446400D01*
X231338400Y-66339310D01*
X231338400Y-66198750D01*
X231179650Y-66040000D01*
X230055400Y-66040000D01*
X230055400Y-66060000D01*
X229801400Y-66060000D01*
X229801400Y-66040000D01*
X228677150Y-66040000D01*
X228518400Y-66198750D01*
X228518400Y-66339310D01*
X228522000Y-66348000D01*
X227876100Y-66348000D01*
X227556559Y-66411561D01*
X227504419Y-66446400D01*
X227228709Y-66446400D01*
X227241100Y-61341308D01*
X227231214Y-61291874D01*
X227202874Y-61250181D01*
X227160546Y-61222798D01*
X227114100Y-61214000D01*
X226617577Y-61214000D01*
X226646900Y-61143209D01*
X226646900Y-60552650D01*
X226488150Y-60393900D01*
X225513900Y-60393900D01*
X225513900Y-60413900D01*
X225259900Y-60413900D01*
X225259900Y-60393900D01*
X224285650Y-60393900D01*
X224158000Y-60521550D01*
X224034200Y-60397750D01*
X223555390Y-60397750D01*
X223555390Y-60143750D01*
X224034200Y-60143750D01*
X224161850Y-60016100D01*
X224285650Y-60139900D01*
X225259900Y-60139900D01*
X225259900Y-60119900D01*
X225513900Y-60119900D01*
X225513900Y-60139900D01*
X226488150Y-60139900D01*
X226646900Y-59981150D01*
X226646900Y-59390591D01*
X226602583Y-59283600D01*
X227497879Y-59283600D01*
X227511938Y-59358317D01*
X227511938Y-59358317D01*
G37*
X227511938Y-59358317D02*
X227651010Y-59574441D01*
X227863210Y-59719431D01*
X228066600Y-59760619D01*
X228066600Y-60265687D01*
X227924669Y-60473410D01*
X227873660Y-60725300D01*
X227873660Y-62225300D01*
X227917938Y-62460617D01*
X228057010Y-62676741D01*
X228066600Y-62683294D01*
X228066600Y-62781775D01*
X227982773Y-62865602D01*
X227886100Y-63098991D01*
X227886100Y-63689550D01*
X228044850Y-63848300D01*
X229019100Y-63848300D01*
X229019100Y-63828300D01*
X229273100Y-63828300D01*
X229273100Y-63848300D01*
X230962200Y-63848300D01*
X230962200Y-63828300D01*
X231216200Y-63828300D01*
X231216200Y-63848300D01*
X231236200Y-63848300D01*
X231236200Y-64102300D01*
X231216200Y-64102300D01*
X231216200Y-64122300D01*
X230962200Y-64122300D01*
X230962200Y-64102300D01*
X229273100Y-64102300D01*
X229273100Y-64122300D01*
X229019100Y-64122300D01*
X229019100Y-64102300D01*
X228044850Y-64102300D01*
X227886100Y-64261050D01*
X227886100Y-64851609D01*
X227982773Y-65084998D01*
X228161401Y-65263627D01*
X228394790Y-65360300D01*
X228570753Y-65360300D01*
X228518400Y-65486690D01*
X228518400Y-65627250D01*
X228677150Y-65786000D01*
X229801400Y-65786000D01*
X229801400Y-65766000D01*
X230055400Y-65766000D01*
X230055400Y-65786000D01*
X231179650Y-65786000D01*
X231338400Y-65627250D01*
X231338400Y-65486690D01*
X231241727Y-65253301D01*
X231216202Y-65227776D01*
X231216202Y-65201552D01*
X231374950Y-65360300D01*
X231840510Y-65360300D01*
X231879800Y-65344026D01*
X231879800Y-66446400D01*
X231294042Y-66446400D01*
X231338400Y-66339310D01*
X231338400Y-66198750D01*
X231179650Y-66040000D01*
X230055400Y-66040000D01*
X230055400Y-66060000D01*
X229801400Y-66060000D01*
X229801400Y-66040000D01*
X228677150Y-66040000D01*
X228518400Y-66198750D01*
X228518400Y-66339310D01*
X228522000Y-66348000D01*
X227876100Y-66348000D01*
X227556559Y-66411561D01*
X227504419Y-66446400D01*
X227228709Y-66446400D01*
X227241100Y-61341308D01*
X227231214Y-61291874D01*
X227202874Y-61250181D01*
X227160546Y-61222798D01*
X227114100Y-61214000D01*
X226617577Y-61214000D01*
X226646900Y-61143209D01*
X226646900Y-60552650D01*
X226488150Y-60393900D01*
X225513900Y-60393900D01*
X225513900Y-60413900D01*
X225259900Y-60413900D01*
X225259900Y-60393900D01*
X224285650Y-60393900D01*
X224158000Y-60521550D01*
X224034200Y-60397750D01*
X223555390Y-60397750D01*
X223555390Y-60143750D01*
X224034200Y-60143750D01*
X224161850Y-60016100D01*
X224285650Y-60139900D01*
X225259900Y-60139900D01*
X225259900Y-60119900D01*
X225513900Y-60119900D01*
X225513900Y-60139900D01*
X226488150Y-60139900D01*
X226646900Y-59981150D01*
X226646900Y-59390591D01*
X226602583Y-59283600D01*
X227497879Y-59283600D01*
X227511938Y-59358317D01*
G36*
X215417400Y-74409300D02*
X215427406Y-74458710D01*
X215455847Y-74500335D01*
X215498241Y-74527615D01*
X215544400Y-74536300D01*
X216767195Y-74536300D01*
X216862810Y-74601631D01*
X217072091Y-74644011D01*
X217093261Y-74750441D01*
X217128380Y-74803000D01*
X217274266Y-75021334D01*
X218427541Y-76174609D01*
X218300300Y-76301850D01*
X218300300Y-77401100D01*
X218320300Y-77401100D01*
X218320300Y-77609700D01*
X214343025Y-77609700D01*
X214463227Y-77489499D01*
X214559900Y-77256110D01*
X214559900Y-76790550D01*
X214459241Y-76689891D01*
X215046400Y-76689891D01*
X215046400Y-77280450D01*
X215205150Y-77439200D01*
X216179400Y-77439200D01*
X216179400Y-76339950D01*
X216433400Y-76339950D01*
X216433400Y-77439200D01*
X217407650Y-77439200D01*
X217445750Y-77401100D01*
X218046300Y-77401100D01*
X218046300Y-76301850D01*
X217887550Y-76143100D01*
X217421990Y-76143100D01*
X217193859Y-76237595D01*
X217057710Y-76181200D01*
X216592150Y-76181200D01*
X216433400Y-76339950D01*
X216179400Y-76339950D01*
X216020650Y-76181200D01*
X215555090Y-76181200D01*
X215321701Y-76277873D01*
X215143073Y-76456502D01*
X215046400Y-76689891D01*
X214459241Y-76689891D01*
X214401150Y-76631800D01*
X213301900Y-76631800D01*
X213301900Y-76651800D01*
X213047900Y-76651800D01*
X213047900Y-76631800D01*
X213027900Y-76631800D01*
X213027900Y-76377800D01*
X213047900Y-76377800D01*
X213047900Y-75403550D01*
X213035200Y-75390850D01*
X213035200Y-74803000D01*
X213289200Y-74803000D01*
X213289200Y-75777250D01*
X213301900Y-75789950D01*
X213301900Y-76377800D01*
X214401150Y-76377800D01*
X214559900Y-76219050D01*
X214559900Y-75753490D01*
X214485996Y-75575070D01*
X214547200Y-75427310D01*
X214547200Y-74961750D01*
X214388450Y-74803000D01*
X213289200Y-74803000D01*
X213035200Y-74803000D01*
X213015200Y-74803000D01*
X213015200Y-74549000D01*
X213035200Y-74549000D01*
X213035200Y-74529000D01*
X213289200Y-74529000D01*
X213289200Y-74549000D01*
X214388450Y-74549000D01*
X214547200Y-74390250D01*
X214547200Y-73924690D01*
X214490167Y-73787000D01*
X215417400Y-73787000D01*
X215417400Y-74409300D01*
X215417400Y-74409300D01*
G37*
X215417400Y-74409300D02*
X215427406Y-74458710D01*
X215455847Y-74500335D01*
X215498241Y-74527615D01*
X215544400Y-74536300D01*
X216767195Y-74536300D01*
X216862810Y-74601631D01*
X217072091Y-74644011D01*
X217093261Y-74750441D01*
X217128380Y-74803000D01*
X217274266Y-75021334D01*
X218427541Y-76174609D01*
X218300300Y-76301850D01*
X218300300Y-77401100D01*
X218320300Y-77401100D01*
X218320300Y-77609700D01*
X214343025Y-77609700D01*
X214463227Y-77489499D01*
X214559900Y-77256110D01*
X214559900Y-76790550D01*
X214459241Y-76689891D01*
X215046400Y-76689891D01*
X215046400Y-77280450D01*
X215205150Y-77439200D01*
X216179400Y-77439200D01*
X216179400Y-76339950D01*
X216433400Y-76339950D01*
X216433400Y-77439200D01*
X217407650Y-77439200D01*
X217445750Y-77401100D01*
X218046300Y-77401100D01*
X218046300Y-76301850D01*
X217887550Y-76143100D01*
X217421990Y-76143100D01*
X217193859Y-76237595D01*
X217057710Y-76181200D01*
X216592150Y-76181200D01*
X216433400Y-76339950D01*
X216179400Y-76339950D01*
X216020650Y-76181200D01*
X215555090Y-76181200D01*
X215321701Y-76277873D01*
X215143073Y-76456502D01*
X215046400Y-76689891D01*
X214459241Y-76689891D01*
X214401150Y-76631800D01*
X213301900Y-76631800D01*
X213301900Y-76651800D01*
X213047900Y-76651800D01*
X213047900Y-76631800D01*
X213027900Y-76631800D01*
X213027900Y-76377800D01*
X213047900Y-76377800D01*
X213047900Y-75403550D01*
X213035200Y-75390850D01*
X213035200Y-74803000D01*
X213289200Y-74803000D01*
X213289200Y-75777250D01*
X213301900Y-75789950D01*
X213301900Y-76377800D01*
X214401150Y-76377800D01*
X214559900Y-76219050D01*
X214559900Y-75753490D01*
X214485996Y-75575070D01*
X214547200Y-75427310D01*
X214547200Y-74961750D01*
X214388450Y-74803000D01*
X213289200Y-74803000D01*
X213035200Y-74803000D01*
X213015200Y-74803000D01*
X213015200Y-74549000D01*
X213035200Y-74549000D01*
X213035200Y-74529000D01*
X213289200Y-74529000D01*
X213289200Y-74549000D01*
X214388450Y-74549000D01*
X214547200Y-74390250D01*
X214547200Y-73924690D01*
X214490167Y-73787000D01*
X215417400Y-73787000D01*
X215417400Y-74409300D01*
M02*
