M48
;DRILL file {KiCad 4.0.2-stable} date 15/05/2017 19:39:20
;FORMAT={-:-/ absolute / inch / decimal}
FMAT,2
INCH,TZ
T1C0.016
T2C0.020
T3C0.031
T4C0.039
%
G90
G05
M72
T1
X6.9995Y-2.7075
X7.1085Y-2.6725
X7.1085Y-2.704
X7.261Y-3.2185
X7.5055Y-3.219
X7.5485Y-2.672
X7.5485Y-2.736
X7.7695Y-2.638
X7.7695Y-2.708
X7.8347Y-2.6277
X7.8367Y-2.0968
X7.9895Y-2.5255
X8.0875Y-2.5265
X8.088Y-2.1415
X8.349Y-2.888
X8.376Y-3.2895
X8.451Y-2.94
X8.453Y-3.012
X8.516Y-2.9935
X8.5895Y-2.993
X8.65Y-3.321
X8.768Y-2.638
X8.778Y-2.432
X8.7785Y-2.745
X8.9185Y-2.817
X9.0215Y-2.3615
X9.045Y-3.3185
X9.098Y-2.3615
X9.1195Y-3.319
T2
X7.0545Y-2.4915
X7.055Y-2.5485
X7.6365Y-2.576
X7.693Y-2.5765
X7.742Y-2.576
X7.9375Y-2.576
X8.0245Y-2.576
X8.0602Y-2.6117
X8.099Y-2.651
X8.0992Y-2.6507
X8.1005Y-2.704
X8.101Y-2.759
X8.294Y-3.08
X8.709Y-2.5025
X8.7145Y-3.072
X8.8735Y-2.211
X8.9165Y-2.8915
X8.938Y-2.351
X8.9605Y-2.394
X8.9605Y-2.4445
X8.9605Y-2.4995
T3
X8.192Y-3.206
X8.2185Y-2.3305
X8.3245Y-2.332
X8.6405Y-2.4725
X8.774Y-2.813
X9.251Y-2.611
T4
X7.073Y-2.9735
X7.073Y-3.0735
X7.1015Y-2.2445
X7.2015Y-2.2445
X7.3015Y-2.2445
X7.8605Y-2.963
X7.8615Y-3.1095
X7.9605Y-2.963
X7.961Y-2.712
X7.961Y-2.812
X7.9615Y-3.1095
X8.87Y-2.4895
X9.239Y-3.161
X9.239Y-3.261
X9.2465Y-2.76
X9.2465Y-2.86
X9.253Y-2.4895
X9.2545Y-2.1985
X9.2545Y-2.2985
T0
M30
