G04 #@! TF.FileFunction,Legend,Top*
%FSLAX46Y46*%
G04 Gerber Fmt 4.6, Leading zero omitted, Abs format (unit mm)*
G04 Created by KiCad (PCBNEW 4.0.2-stable) date 15/05/2017 19:39:16*
%MOMM*%
G01*
G04 APERTURE LIST*
%ADD10C,0.100000*%
%ADD11C,0.150000*%
%ADD12C,0.120000*%
G04 APERTURE END LIST*
D10*
D11*
X215669800Y-65500200D02*
X215194800Y-65500200D01*
X215669800Y-71050200D02*
X215094800Y-71050200D01*
X209119800Y-71050200D02*
X209694800Y-71050200D01*
X209119800Y-65500200D02*
X209694800Y-65500200D01*
X215669800Y-65500200D02*
X215669800Y-71050200D01*
X209119800Y-65500200D02*
X209119800Y-71050200D01*
X215194800Y-65500200D02*
X215194800Y-64225200D01*
D12*
X216425400Y-60922800D02*
X215425400Y-60922800D01*
X215425400Y-62622800D02*
X216425400Y-62622800D01*
X230239200Y-62225300D02*
X230239200Y-63225300D01*
X231939200Y-63225300D02*
X231939200Y-62225300D01*
X228296100Y-62225300D02*
X228296100Y-63225300D01*
X229996100Y-63225300D02*
X229996100Y-62225300D01*
X224536900Y-58516900D02*
X224536900Y-59516900D01*
X226236900Y-59516900D02*
X226236900Y-58516900D01*
X178347000Y-67025900D02*
X178347000Y-68025900D01*
X180047000Y-68025900D02*
X180047000Y-67025900D01*
X195076700Y-66155200D02*
X194076700Y-66155200D01*
X194076700Y-67855200D02*
X195076700Y-67855200D01*
X195076700Y-67933200D02*
X194076700Y-67933200D01*
X194076700Y-69633200D02*
X195076700Y-69633200D01*
X199852650Y-64514350D02*
X199852650Y-63514350D01*
X198152650Y-63514350D02*
X198152650Y-64514350D01*
X198203450Y-55500650D02*
X198203450Y-56500650D01*
X199903450Y-56500650D02*
X199903450Y-55500650D01*
X232485300Y-82046700D02*
X232485300Y-81046700D01*
X230785300Y-81046700D02*
X230785300Y-82046700D01*
X230593000Y-82046700D02*
X230593000Y-81046700D01*
X228893000Y-81046700D02*
X228893000Y-82046700D01*
X202083300Y-60891800D02*
X202083300Y-61891800D01*
X203783300Y-61891800D02*
X203783300Y-60891800D01*
X211412200Y-75526000D02*
X212412200Y-75526000D01*
X212412200Y-73826000D02*
X211412200Y-73826000D01*
X219023300Y-79278100D02*
X219023300Y-78278100D01*
X217323300Y-78278100D02*
X217323300Y-79278100D01*
X216428700Y-82866600D02*
X217428700Y-82866600D01*
X217428700Y-81166600D02*
X216428700Y-81166600D01*
X213445500Y-82894400D02*
X213445500Y-81494400D01*
X213445500Y-81494400D02*
X210645500Y-81494400D01*
X213445500Y-82894400D02*
X210645500Y-82894400D01*
X236191100Y-71374000D02*
X236191100Y-68774000D01*
X236191100Y-68774000D02*
X233531100Y-68774000D01*
X233531100Y-68774000D02*
X233531100Y-71374000D01*
X233531100Y-71374000D02*
X236191100Y-71374000D01*
X236191100Y-72644000D02*
X236191100Y-73974000D01*
X236191100Y-73974000D02*
X234861100Y-73974000D01*
X236394300Y-57111900D02*
X236394300Y-54511900D01*
X236394300Y-54511900D02*
X233734300Y-54511900D01*
X233734300Y-54511900D02*
X233734300Y-57111900D01*
X233734300Y-57111900D02*
X236394300Y-57111900D01*
X236394300Y-58381900D02*
X236394300Y-59711900D01*
X236394300Y-59711900D02*
X235064300Y-59711900D01*
X200952100Y-77651300D02*
X198352100Y-77651300D01*
X198352100Y-77651300D02*
X198352100Y-80311300D01*
X198352100Y-80311300D02*
X200952100Y-80311300D01*
X200952100Y-80311300D02*
X200952100Y-77651300D01*
X202222100Y-77651300D02*
X203552100Y-77651300D01*
X203552100Y-77651300D02*
X203552100Y-78981300D01*
X200926700Y-73930200D02*
X198326700Y-73930200D01*
X198326700Y-73930200D02*
X198326700Y-76590200D01*
X198326700Y-76590200D02*
X200926700Y-76590200D01*
X200926700Y-76590200D02*
X200926700Y-73930200D01*
X202196700Y-73930200D02*
X203526700Y-73930200D01*
X203526700Y-73930200D02*
X203526700Y-75260200D01*
X233340600Y-81559400D02*
X233340600Y-84159400D01*
X233340600Y-84159400D02*
X236000600Y-84159400D01*
X236000600Y-84159400D02*
X236000600Y-81559400D01*
X236000600Y-81559400D02*
X233340600Y-81559400D01*
X233340600Y-80289400D02*
X233340600Y-78959400D01*
X233340600Y-78959400D02*
X234670600Y-78959400D01*
X230025500Y-74324100D02*
X228825500Y-74324100D01*
X228825500Y-72564100D02*
X230025500Y-72564100D01*
X228787400Y-70671800D02*
X229987400Y-70671800D01*
X229987400Y-72431800D02*
X228787400Y-72431800D01*
X206130600Y-78139400D02*
X207330600Y-78139400D01*
X207330600Y-79899400D02*
X206130600Y-79899400D01*
X204352000Y-74488600D02*
X204352000Y-73288600D01*
X206112000Y-73288600D02*
X206112000Y-74488600D01*
X219249700Y-64131300D02*
X220449700Y-64131300D01*
X220449700Y-65891300D02*
X219249700Y-65891300D01*
X220449700Y-67885200D02*
X219249700Y-67885200D01*
X219249700Y-66125200D02*
X220449700Y-66125200D01*
X230012800Y-76229100D02*
X228812800Y-76229100D01*
X228812800Y-74469100D02*
X230012800Y-74469100D01*
X219814700Y-74235200D02*
X218614700Y-74235200D01*
X218614700Y-72475200D02*
X219814700Y-72475200D01*
X218602000Y-70519400D02*
X219802000Y-70519400D01*
X219802000Y-72279400D02*
X218602000Y-72279400D01*
X229645100Y-56423000D02*
X229645100Y-57623000D01*
X227885100Y-57623000D02*
X227885100Y-56423000D01*
X193506200Y-75403000D02*
X193506200Y-74203000D01*
X195266200Y-74203000D02*
X195266200Y-75403000D01*
X185328200Y-79290700D02*
X189728200Y-79290700D01*
X185328200Y-79290700D02*
X185328200Y-76690700D01*
X189728200Y-76690700D02*
X189728200Y-79290700D01*
X185328200Y-76690700D02*
X189728200Y-76690700D01*
D11*
X225153400Y-65243000D02*
X225153400Y-65293000D01*
X229303400Y-65243000D02*
X229303400Y-65388000D01*
X229303400Y-70393000D02*
X229303400Y-70248000D01*
X225153400Y-70393000D02*
X225153400Y-70248000D01*
X225153400Y-65243000D02*
X229303400Y-65243000D01*
X225153400Y-70393000D02*
X229303400Y-70393000D01*
X225153400Y-65293000D02*
X223753400Y-65293000D01*
X220682950Y-59745750D02*
X220857950Y-59745750D01*
X220682950Y-56395750D02*
X220932950Y-56395750D01*
X224032950Y-56395750D02*
X223782950Y-56395750D01*
X224032950Y-59745750D02*
X223782950Y-59745750D01*
X220682950Y-59745750D02*
X220682950Y-56395750D01*
X224032950Y-59745750D02*
X224032950Y-56395750D01*
X220857950Y-59745750D02*
X220857950Y-60995750D01*
X189718100Y-71900200D02*
X189718100Y-71675200D01*
X182468100Y-71900200D02*
X182468100Y-71600200D01*
X182468100Y-64650200D02*
X182468100Y-64950200D01*
X189718100Y-64650200D02*
X189718100Y-64950200D01*
X189718100Y-71900200D02*
X189418100Y-71900200D01*
X189718100Y-64650200D02*
X189418100Y-64650200D01*
X182468100Y-64650200D02*
X182768100Y-64650200D01*
X182468100Y-71900200D02*
X182768100Y-71900200D01*
X189718100Y-71675200D02*
X190943100Y-71675200D01*
D12*
X203640600Y-55421400D02*
X204740600Y-55421400D01*
X203640600Y-58421400D02*
X204740600Y-58421400D01*
X194370550Y-57288450D02*
X194370550Y-64613450D01*
X194370550Y-64613450D02*
X197970550Y-64613450D01*
X197970550Y-64613450D02*
X197970550Y-57288450D01*
X212424900Y-75654800D02*
X211424900Y-75654800D01*
X211424900Y-77354800D02*
X212424900Y-77354800D01*
X203539400Y-70154800D02*
X203539400Y-67554800D01*
X203539400Y-67554800D02*
X200879400Y-67554800D01*
X200879400Y-67554800D02*
X200879400Y-70154800D01*
X200879400Y-70154800D02*
X203539400Y-70154800D01*
X203539400Y-71424800D02*
X203539400Y-72754800D01*
X203539400Y-72754800D02*
X202209400Y-72754800D01*
X217156400Y-79316200D02*
X217156400Y-78316200D01*
X215456400Y-78316200D02*
X215456400Y-79316200D01*
X206272500Y-61917200D02*
X206272500Y-60917200D01*
X204572500Y-60917200D02*
X204572500Y-61917200D01*
X211324900Y-79206200D02*
X212524900Y-79206200D01*
X212524900Y-80966200D02*
X211324900Y-80966200D01*
D11*
X221914900Y-78755800D02*
X221914900Y-78805800D01*
X226064900Y-78755800D02*
X226064900Y-78900800D01*
X226064900Y-83905800D02*
X226064900Y-83760800D01*
X221914900Y-83905800D02*
X221914900Y-83760800D01*
X221914900Y-78755800D02*
X226064900Y-78755800D01*
X221914900Y-83905800D02*
X226064900Y-83905800D01*
X221914900Y-78805800D02*
X220514900Y-78805800D01*
D12*
X184188100Y-55680300D02*
X179048100Y-55680300D01*
X179048100Y-55680300D02*
X179048100Y-58340300D01*
X179048100Y-58340300D02*
X184188100Y-58340300D01*
X184188100Y-58340300D02*
X184188100Y-55680300D01*
X185458100Y-55680300D02*
X186788100Y-55680300D01*
X186788100Y-55680300D02*
X186788100Y-57010300D01*
X226568000Y-64563300D02*
X226628000Y-64563300D01*
X226628000Y-64563300D02*
X226628000Y-61903300D01*
X226628000Y-61903300D02*
X226568000Y-61903300D01*
X226568000Y-61903300D02*
X226568000Y-64563300D01*
X225298000Y-64563300D02*
X223968000Y-64563300D01*
X223968000Y-64563300D02*
X223968000Y-63233300D01*
X233696200Y-64503300D02*
X233696200Y-64563300D01*
X233696200Y-64563300D02*
X236356200Y-64563300D01*
X236356200Y-64563300D02*
X236356200Y-64503300D01*
X236356200Y-64503300D02*
X233696200Y-64503300D01*
X233696200Y-63233300D02*
X233696200Y-61903300D01*
X233696200Y-61903300D02*
X235026200Y-61903300D01*
X180984200Y-76796900D02*
X180984200Y-74196900D01*
X180984200Y-74196900D02*
X178324200Y-74196900D01*
X178324200Y-74196900D02*
X178324200Y-76796900D01*
X178324200Y-76796900D02*
X180984200Y-76796900D01*
X180984200Y-78066900D02*
X180984200Y-79396900D01*
X180984200Y-79396900D02*
X179654200Y-79396900D01*
D11*
X216537657Y-69208533D02*
X216575752Y-69094247D01*
X216613848Y-69056152D01*
X216690038Y-69018057D01*
X216804324Y-69018057D01*
X216880514Y-69056152D01*
X216918610Y-69094247D01*
X216956705Y-69170438D01*
X216956705Y-69475200D01*
X216156705Y-69475200D01*
X216156705Y-69208533D01*
X216194800Y-69132343D01*
X216232895Y-69094247D01*
X216309086Y-69056152D01*
X216385276Y-69056152D01*
X216461467Y-69094247D01*
X216499562Y-69132343D01*
X216537657Y-69208533D01*
X216537657Y-69475200D01*
X216956705Y-68675200D02*
X216156705Y-68675200D01*
X216156705Y-68141867D02*
X216156705Y-67989486D01*
X216194800Y-67913295D01*
X216270990Y-67837105D01*
X216423371Y-67799010D01*
X216690038Y-67799010D01*
X216842419Y-67837105D01*
X216918610Y-67913295D01*
X216956705Y-67989486D01*
X216956705Y-68141867D01*
X216918610Y-68218057D01*
X216842419Y-68294248D01*
X216690038Y-68332343D01*
X216423371Y-68332343D01*
X216270990Y-68294248D01*
X216194800Y-68218057D01*
X216156705Y-68141867D01*
X216956705Y-67037105D02*
X216956705Y-67494248D01*
X216956705Y-67265677D02*
X216156705Y-67265677D01*
X216270990Y-67341867D01*
X216347181Y-67418058D01*
X216385276Y-67494248D01*
X215792067Y-60308514D02*
X215753972Y-60346610D01*
X215639686Y-60384705D01*
X215563496Y-60384705D01*
X215449210Y-60346610D01*
X215373019Y-60270419D01*
X215334924Y-60194229D01*
X215296829Y-60041848D01*
X215296829Y-59927562D01*
X215334924Y-59775181D01*
X215373019Y-59698990D01*
X215449210Y-59622800D01*
X215563496Y-59584705D01*
X215639686Y-59584705D01*
X215753972Y-59622800D01*
X215792067Y-59660895D01*
X216553972Y-60384705D02*
X216096829Y-60384705D01*
X216325400Y-60384705D02*
X216325400Y-59584705D01*
X216249210Y-59698990D01*
X216173019Y-59775181D01*
X216096829Y-59813276D01*
X232873514Y-62858633D02*
X232911610Y-62896728D01*
X232949705Y-63011014D01*
X232949705Y-63087204D01*
X232911610Y-63201490D01*
X232835419Y-63277681D01*
X232759229Y-63315776D01*
X232606848Y-63353871D01*
X232492562Y-63353871D01*
X232340181Y-63315776D01*
X232263990Y-63277681D01*
X232187800Y-63201490D01*
X232149705Y-63087204D01*
X232149705Y-63011014D01*
X232187800Y-62896728D01*
X232225895Y-62858633D01*
X232225895Y-62553871D02*
X232187800Y-62515776D01*
X232149705Y-62439585D01*
X232149705Y-62249109D01*
X232187800Y-62172919D01*
X232225895Y-62134823D01*
X232302086Y-62096728D01*
X232378276Y-62096728D01*
X232492562Y-62134823D01*
X232949705Y-62591966D01*
X232949705Y-62096728D01*
X228009414Y-62858633D02*
X228047510Y-62896728D01*
X228085605Y-63011014D01*
X228085605Y-63087204D01*
X228047510Y-63201490D01*
X227971319Y-63277681D01*
X227895129Y-63315776D01*
X227742748Y-63353871D01*
X227628462Y-63353871D01*
X227476081Y-63315776D01*
X227399890Y-63277681D01*
X227323700Y-63201490D01*
X227285605Y-63087204D01*
X227285605Y-63011014D01*
X227323700Y-62896728D01*
X227361795Y-62858633D01*
X227285605Y-62591966D02*
X227285605Y-62096728D01*
X227590367Y-62363395D01*
X227590367Y-62249109D01*
X227628462Y-62172919D01*
X227666557Y-62134823D01*
X227742748Y-62096728D01*
X227933224Y-62096728D01*
X228009414Y-62134823D01*
X228047510Y-62172919D01*
X228085605Y-62249109D01*
X228085605Y-62477681D01*
X228047510Y-62553871D01*
X228009414Y-62591966D01*
X225672614Y-55225933D02*
X225710710Y-55264028D01*
X225748805Y-55378314D01*
X225748805Y-55454504D01*
X225710710Y-55568790D01*
X225634519Y-55644981D01*
X225558329Y-55683076D01*
X225405948Y-55721171D01*
X225291662Y-55721171D01*
X225139281Y-55683076D01*
X225063090Y-55644981D01*
X224986900Y-55568790D01*
X224948805Y-55454504D01*
X224948805Y-55378314D01*
X224986900Y-55264028D01*
X225024995Y-55225933D01*
X225215471Y-54540219D02*
X225748805Y-54540219D01*
X224910710Y-54730695D02*
X225482138Y-54921171D01*
X225482138Y-54425933D01*
X177933314Y-67659233D02*
X177971410Y-67697328D01*
X178009505Y-67811614D01*
X178009505Y-67887804D01*
X177971410Y-68002090D01*
X177895219Y-68078281D01*
X177819029Y-68116376D01*
X177666648Y-68154471D01*
X177552362Y-68154471D01*
X177399981Y-68116376D01*
X177323790Y-68078281D01*
X177247600Y-68002090D01*
X177209505Y-67887804D01*
X177209505Y-67811614D01*
X177247600Y-67697328D01*
X177285695Y-67659233D01*
X177209505Y-66935423D02*
X177209505Y-67316376D01*
X177590457Y-67354471D01*
X177552362Y-67316376D01*
X177514267Y-67240185D01*
X177514267Y-67049709D01*
X177552362Y-66973519D01*
X177590457Y-66935423D01*
X177666648Y-66897328D01*
X177857124Y-66897328D01*
X177933314Y-66935423D01*
X177971410Y-66973519D01*
X178009505Y-67049709D01*
X178009505Y-67240185D01*
X177971410Y-67316376D01*
X177933314Y-67354471D01*
X194443367Y-65754214D02*
X194405272Y-65792310D01*
X194290986Y-65830405D01*
X194214796Y-65830405D01*
X194100510Y-65792310D01*
X194024319Y-65716119D01*
X193986224Y-65639929D01*
X193948129Y-65487548D01*
X193948129Y-65373262D01*
X193986224Y-65220881D01*
X194024319Y-65144690D01*
X194100510Y-65068500D01*
X194214796Y-65030405D01*
X194290986Y-65030405D01*
X194405272Y-65068500D01*
X194443367Y-65106595D01*
X195129081Y-65030405D02*
X194976700Y-65030405D01*
X194900510Y-65068500D01*
X194862415Y-65106595D01*
X194786224Y-65220881D01*
X194748129Y-65373262D01*
X194748129Y-65678024D01*
X194786224Y-65754214D01*
X194824319Y-65792310D01*
X194900510Y-65830405D01*
X195052891Y-65830405D01*
X195129081Y-65792310D01*
X195167177Y-65754214D01*
X195205272Y-65678024D01*
X195205272Y-65487548D01*
X195167177Y-65411357D01*
X195129081Y-65373262D01*
X195052891Y-65335167D01*
X194900510Y-65335167D01*
X194824319Y-65373262D01*
X194786224Y-65411357D01*
X194748129Y-65487548D01*
X194456067Y-70669114D02*
X194417972Y-70707210D01*
X194303686Y-70745305D01*
X194227496Y-70745305D01*
X194113210Y-70707210D01*
X194037019Y-70631019D01*
X193998924Y-70554829D01*
X193960829Y-70402448D01*
X193960829Y-70288162D01*
X193998924Y-70135781D01*
X194037019Y-70059590D01*
X194113210Y-69983400D01*
X194227496Y-69945305D01*
X194303686Y-69945305D01*
X194417972Y-69983400D01*
X194456067Y-70021495D01*
X194722734Y-69945305D02*
X195256067Y-69945305D01*
X194913210Y-70745305D01*
X200996514Y-64128633D02*
X201034610Y-64166728D01*
X201072705Y-64281014D01*
X201072705Y-64357204D01*
X201034610Y-64471490D01*
X200958419Y-64547681D01*
X200882229Y-64585776D01*
X200729848Y-64623871D01*
X200615562Y-64623871D01*
X200463181Y-64585776D01*
X200386990Y-64547681D01*
X200310800Y-64471490D01*
X200272705Y-64357204D01*
X200272705Y-64281014D01*
X200310800Y-64166728D01*
X200348895Y-64128633D01*
X200615562Y-63671490D02*
X200577467Y-63747681D01*
X200539371Y-63785776D01*
X200463181Y-63823871D01*
X200425086Y-63823871D01*
X200348895Y-63785776D01*
X200310800Y-63747681D01*
X200272705Y-63671490D01*
X200272705Y-63519109D01*
X200310800Y-63442919D01*
X200348895Y-63404823D01*
X200425086Y-63366728D01*
X200463181Y-63366728D01*
X200539371Y-63404823D01*
X200577467Y-63442919D01*
X200615562Y-63519109D01*
X200615562Y-63671490D01*
X200653657Y-63747681D01*
X200691752Y-63785776D01*
X200767943Y-63823871D01*
X200920324Y-63823871D01*
X200996514Y-63785776D01*
X201034610Y-63747681D01*
X201072705Y-63671490D01*
X201072705Y-63519109D01*
X201034610Y-63442919D01*
X200996514Y-63404823D01*
X200920324Y-63366728D01*
X200767943Y-63366728D01*
X200691752Y-63404823D01*
X200653657Y-63442919D01*
X200615562Y-63519109D01*
X201034614Y-56114933D02*
X201072710Y-56153028D01*
X201110805Y-56267314D01*
X201110805Y-56343504D01*
X201072710Y-56457790D01*
X200996519Y-56533981D01*
X200920329Y-56572076D01*
X200767948Y-56610171D01*
X200653662Y-56610171D01*
X200501281Y-56572076D01*
X200425090Y-56533981D01*
X200348900Y-56457790D01*
X200310805Y-56343504D01*
X200310805Y-56267314D01*
X200348900Y-56153028D01*
X200386995Y-56114933D01*
X201110805Y-55733981D02*
X201110805Y-55581600D01*
X201072710Y-55505409D01*
X201034614Y-55467314D01*
X200920329Y-55391123D01*
X200767948Y-55353028D01*
X200463186Y-55353028D01*
X200386995Y-55391123D01*
X200348900Y-55429219D01*
X200310805Y-55505409D01*
X200310805Y-55657790D01*
X200348900Y-55733981D01*
X200386995Y-55772076D01*
X200463186Y-55810171D01*
X200653662Y-55810171D01*
X200729852Y-55772076D01*
X200767948Y-55733981D01*
X200806043Y-55657790D01*
X200806043Y-55505409D01*
X200767948Y-55429219D01*
X200729852Y-55391123D01*
X200653662Y-55353028D01*
X231921014Y-78403386D02*
X231959110Y-78441481D01*
X231997205Y-78555767D01*
X231997205Y-78631957D01*
X231959110Y-78746243D01*
X231882919Y-78822434D01*
X231806729Y-78860529D01*
X231654348Y-78898624D01*
X231540062Y-78898624D01*
X231387681Y-78860529D01*
X231311490Y-78822434D01*
X231235300Y-78746243D01*
X231197205Y-78631957D01*
X231197205Y-78555767D01*
X231235300Y-78441481D01*
X231273395Y-78403386D01*
X231997205Y-77641481D02*
X231997205Y-78098624D01*
X231997205Y-77870053D02*
X231197205Y-77870053D01*
X231311490Y-77946243D01*
X231387681Y-78022434D01*
X231425776Y-78098624D01*
X231197205Y-77146243D02*
X231197205Y-77070052D01*
X231235300Y-76993862D01*
X231273395Y-76955767D01*
X231349586Y-76917671D01*
X231501967Y-76879576D01*
X231692443Y-76879576D01*
X231844824Y-76917671D01*
X231921014Y-76955767D01*
X231959110Y-76993862D01*
X231997205Y-77070052D01*
X231997205Y-77146243D01*
X231959110Y-77222433D01*
X231921014Y-77260529D01*
X231844824Y-77298624D01*
X231692443Y-77336719D01*
X231501967Y-77336719D01*
X231349586Y-77298624D01*
X231273395Y-77260529D01*
X231235300Y-77222433D01*
X231197205Y-77146243D01*
X230028714Y-78441486D02*
X230066810Y-78479581D01*
X230104905Y-78593867D01*
X230104905Y-78670057D01*
X230066810Y-78784343D01*
X229990619Y-78860534D01*
X229914429Y-78898629D01*
X229762048Y-78936724D01*
X229647762Y-78936724D01*
X229495381Y-78898629D01*
X229419190Y-78860534D01*
X229343000Y-78784343D01*
X229304905Y-78670057D01*
X229304905Y-78593867D01*
X229343000Y-78479581D01*
X229381095Y-78441486D01*
X230104905Y-77679581D02*
X230104905Y-78136724D01*
X230104905Y-77908153D02*
X229304905Y-77908153D01*
X229419190Y-77984343D01*
X229495381Y-78060534D01*
X229533476Y-78136724D01*
X230104905Y-76917676D02*
X230104905Y-77374819D01*
X230104905Y-77146248D02*
X229304905Y-77146248D01*
X229419190Y-77222438D01*
X229495381Y-77298629D01*
X229533476Y-77374819D01*
X201606114Y-61906086D02*
X201644210Y-61944181D01*
X201682305Y-62058467D01*
X201682305Y-62134657D01*
X201644210Y-62248943D01*
X201568019Y-62325134D01*
X201491829Y-62363229D01*
X201339448Y-62401324D01*
X201225162Y-62401324D01*
X201072781Y-62363229D01*
X200996590Y-62325134D01*
X200920400Y-62248943D01*
X200882305Y-62134657D01*
X200882305Y-62058467D01*
X200920400Y-61944181D01*
X200958495Y-61906086D01*
X201682305Y-61144181D02*
X201682305Y-61601324D01*
X201682305Y-61372753D02*
X200882305Y-61372753D01*
X200996590Y-61448943D01*
X201072781Y-61525134D01*
X201110876Y-61601324D01*
X200958495Y-60839419D02*
X200920400Y-60801324D01*
X200882305Y-60725133D01*
X200882305Y-60534657D01*
X200920400Y-60458467D01*
X200958495Y-60420371D01*
X201034686Y-60382276D01*
X201110876Y-60382276D01*
X201225162Y-60420371D01*
X201682305Y-60877514D01*
X201682305Y-60382276D01*
X207664114Y-74974414D02*
X207626019Y-75012510D01*
X207511733Y-75050605D01*
X207435543Y-75050605D01*
X207321257Y-75012510D01*
X207245066Y-74936319D01*
X207206971Y-74860129D01*
X207168876Y-74707748D01*
X207168876Y-74593462D01*
X207206971Y-74441081D01*
X207245066Y-74364890D01*
X207321257Y-74288700D01*
X207435543Y-74250605D01*
X207511733Y-74250605D01*
X207626019Y-74288700D01*
X207664114Y-74326795D01*
X208426019Y-75050605D02*
X207968876Y-75050605D01*
X208197447Y-75050605D02*
X208197447Y-74250605D01*
X208121257Y-74364890D01*
X208045066Y-74441081D01*
X207968876Y-74479176D01*
X208692686Y-74250605D02*
X209187924Y-74250605D01*
X208921257Y-74555367D01*
X209035543Y-74555367D01*
X209111733Y-74593462D01*
X209149829Y-74631557D01*
X209187924Y-74707748D01*
X209187924Y-74898224D01*
X209149829Y-74974414D01*
X209111733Y-75012510D01*
X209035543Y-75050605D01*
X208806971Y-75050605D01*
X208730781Y-75012510D01*
X208692686Y-74974414D01*
X220135414Y-78073186D02*
X220173510Y-78111281D01*
X220211605Y-78225567D01*
X220211605Y-78301757D01*
X220173510Y-78416043D01*
X220097319Y-78492234D01*
X220021129Y-78530329D01*
X219868748Y-78568424D01*
X219754462Y-78568424D01*
X219602081Y-78530329D01*
X219525890Y-78492234D01*
X219449700Y-78416043D01*
X219411605Y-78301757D01*
X219411605Y-78225567D01*
X219449700Y-78111281D01*
X219487795Y-78073186D01*
X220211605Y-77311281D02*
X220211605Y-77768424D01*
X220211605Y-77539853D02*
X219411605Y-77539853D01*
X219525890Y-77616043D01*
X219602081Y-77692234D01*
X219640176Y-77768424D01*
X219411605Y-76587471D02*
X219411605Y-76968424D01*
X219792557Y-77006519D01*
X219754462Y-76968424D01*
X219716367Y-76892233D01*
X219716367Y-76701757D01*
X219754462Y-76625567D01*
X219792557Y-76587471D01*
X219868748Y-76549376D01*
X220059224Y-76549376D01*
X220135414Y-76587471D01*
X220173510Y-76625567D01*
X220211605Y-76701757D01*
X220211605Y-76892233D01*
X220173510Y-76968424D01*
X220135414Y-77006519D01*
X216414414Y-84052314D02*
X216376319Y-84090410D01*
X216262033Y-84128505D01*
X216185843Y-84128505D01*
X216071557Y-84090410D01*
X215995366Y-84014219D01*
X215957271Y-83938029D01*
X215919176Y-83785648D01*
X215919176Y-83671362D01*
X215957271Y-83518981D01*
X215995366Y-83442790D01*
X216071557Y-83366600D01*
X216185843Y-83328505D01*
X216262033Y-83328505D01*
X216376319Y-83366600D01*
X216414414Y-83404695D01*
X217176319Y-84128505D02*
X216719176Y-84128505D01*
X216947747Y-84128505D02*
X216947747Y-83328505D01*
X216871557Y-83442790D01*
X216795366Y-83518981D01*
X216719176Y-83557076D01*
X217862033Y-83328505D02*
X217709652Y-83328505D01*
X217633462Y-83366600D01*
X217595367Y-83404695D01*
X217519176Y-83518981D01*
X217481081Y-83671362D01*
X217481081Y-83976124D01*
X217519176Y-84052314D01*
X217557271Y-84090410D01*
X217633462Y-84128505D01*
X217785843Y-84128505D01*
X217862033Y-84090410D01*
X217900129Y-84052314D01*
X217938224Y-83976124D01*
X217938224Y-83785648D01*
X217900129Y-83709457D01*
X217862033Y-83671362D01*
X217785843Y-83633267D01*
X217633462Y-83633267D01*
X217557271Y-83671362D01*
X217519176Y-83709457D01*
X217481081Y-83785648D01*
X211055024Y-84143805D02*
X211055024Y-83343805D01*
X211245500Y-83343805D01*
X211359786Y-83381900D01*
X211435977Y-83458090D01*
X211474072Y-83534281D01*
X211512167Y-83686662D01*
X211512167Y-83800948D01*
X211474072Y-83953329D01*
X211435977Y-84029519D01*
X211359786Y-84105710D01*
X211245500Y-84143805D01*
X211055024Y-84143805D01*
X212274072Y-84143805D02*
X211816929Y-84143805D01*
X212045500Y-84143805D02*
X212045500Y-83343805D01*
X211969310Y-83458090D01*
X211893119Y-83534281D01*
X211816929Y-83572376D01*
X234594434Y-74568105D02*
X234594434Y-75139533D01*
X234556338Y-75253819D01*
X234480148Y-75330010D01*
X234365862Y-75368105D01*
X234289672Y-75368105D01*
X235394434Y-75368105D02*
X234937291Y-75368105D01*
X235165862Y-75368105D02*
X235165862Y-74568105D01*
X235089672Y-74682390D01*
X235013481Y-74758581D01*
X234937291Y-74796676D01*
X232130634Y-57931105D02*
X232130634Y-58502533D01*
X232092538Y-58616819D01*
X232016348Y-58693010D01*
X231902062Y-58731105D01*
X231825872Y-58731105D01*
X232473491Y-58007295D02*
X232511586Y-57969200D01*
X232587777Y-57931105D01*
X232778253Y-57931105D01*
X232854443Y-57969200D01*
X232892539Y-58007295D01*
X232930634Y-58083486D01*
X232930634Y-58159676D01*
X232892539Y-58273962D01*
X232435396Y-58731105D01*
X232930634Y-58731105D01*
X196818305Y-79222566D02*
X197389733Y-79222566D01*
X197504019Y-79260662D01*
X197580210Y-79336852D01*
X197618305Y-79451138D01*
X197618305Y-79527328D01*
X196818305Y-78917804D02*
X196818305Y-78422566D01*
X197123067Y-78689233D01*
X197123067Y-78574947D01*
X197161162Y-78498757D01*
X197199257Y-78460661D01*
X197275448Y-78422566D01*
X197465924Y-78422566D01*
X197542114Y-78460661D01*
X197580210Y-78498757D01*
X197618305Y-78574947D01*
X197618305Y-78803519D01*
X197580210Y-78879709D01*
X197542114Y-78917804D01*
X196818305Y-75526866D02*
X197389733Y-75526866D01*
X197504019Y-75564962D01*
X197580210Y-75641152D01*
X197618305Y-75755438D01*
X197618305Y-75831628D01*
X197084971Y-74803057D02*
X197618305Y-74803057D01*
X196780210Y-74993533D02*
X197351638Y-75184009D01*
X197351638Y-74688771D01*
X234080124Y-78321305D02*
X234080124Y-77521305D01*
X234384886Y-77521305D01*
X234461077Y-77559400D01*
X234499172Y-77597495D01*
X234537267Y-77673686D01*
X234537267Y-77787971D01*
X234499172Y-77864162D01*
X234461077Y-77902257D01*
X234384886Y-77940352D01*
X234080124Y-77940352D01*
X234803934Y-77521305D02*
X235299172Y-77521305D01*
X235032505Y-77826067D01*
X235146791Y-77826067D01*
X235222981Y-77864162D01*
X235261077Y-77902257D01*
X235299172Y-77978448D01*
X235299172Y-78168924D01*
X235261077Y-78245114D01*
X235222981Y-78283210D01*
X235146791Y-78321305D01*
X234918219Y-78321305D01*
X234842029Y-78283210D01*
X234803934Y-78245114D01*
X225253567Y-73806005D02*
X224986900Y-73425052D01*
X224796424Y-73806005D02*
X224796424Y-73006005D01*
X225101186Y-73006005D01*
X225177377Y-73044100D01*
X225215472Y-73082195D01*
X225253567Y-73158386D01*
X225253567Y-73272671D01*
X225215472Y-73348862D01*
X225177377Y-73386957D01*
X225101186Y-73425052D01*
X224796424Y-73425052D01*
X226015472Y-73806005D02*
X225558329Y-73806005D01*
X225786900Y-73806005D02*
X225786900Y-73006005D01*
X225710710Y-73120290D01*
X225634519Y-73196481D01*
X225558329Y-73234576D01*
X225266267Y-71913705D02*
X224999600Y-71532752D01*
X224809124Y-71913705D02*
X224809124Y-71113705D01*
X225113886Y-71113705D01*
X225190077Y-71151800D01*
X225228172Y-71189895D01*
X225266267Y-71266086D01*
X225266267Y-71380371D01*
X225228172Y-71456562D01*
X225190077Y-71494657D01*
X225113886Y-71532752D01*
X224809124Y-71532752D01*
X225571029Y-71189895D02*
X225609124Y-71151800D01*
X225685315Y-71113705D01*
X225875791Y-71113705D01*
X225951981Y-71151800D01*
X225990077Y-71189895D01*
X226028172Y-71266086D01*
X226028172Y-71342276D01*
X225990077Y-71456562D01*
X225532934Y-71913705D01*
X226028172Y-71913705D01*
X205174867Y-81083105D02*
X204908200Y-80702152D01*
X204717724Y-81083105D02*
X204717724Y-80283105D01*
X205022486Y-80283105D01*
X205098677Y-80321200D01*
X205136772Y-80359295D01*
X205174867Y-80435486D01*
X205174867Y-80549771D01*
X205136772Y-80625962D01*
X205098677Y-80664057D01*
X205022486Y-80702152D01*
X204717724Y-80702152D01*
X205441534Y-80283105D02*
X205936772Y-80283105D01*
X205670105Y-80587867D01*
X205784391Y-80587867D01*
X205860581Y-80625962D01*
X205898677Y-80664057D01*
X205936772Y-80740248D01*
X205936772Y-80930724D01*
X205898677Y-81006914D01*
X205860581Y-81045010D01*
X205784391Y-81083105D01*
X205555819Y-81083105D01*
X205479629Y-81045010D01*
X205441534Y-81006914D01*
X207308405Y-72434433D02*
X206927452Y-72701100D01*
X207308405Y-72891576D02*
X206508405Y-72891576D01*
X206508405Y-72586814D01*
X206546500Y-72510623D01*
X206584595Y-72472528D01*
X206660786Y-72434433D01*
X206775071Y-72434433D01*
X206851262Y-72472528D01*
X206889357Y-72510623D01*
X206927452Y-72586814D01*
X206927452Y-72891576D01*
X206775071Y-71748719D02*
X207308405Y-71748719D01*
X206470310Y-71939195D02*
X207041738Y-72129671D01*
X207041738Y-71634433D01*
X219716367Y-68903805D02*
X219449700Y-68522852D01*
X219259224Y-68903805D02*
X219259224Y-68103805D01*
X219563986Y-68103805D01*
X219640177Y-68141900D01*
X219678272Y-68179995D01*
X219716367Y-68256186D01*
X219716367Y-68370471D01*
X219678272Y-68446662D01*
X219640177Y-68484757D01*
X219563986Y-68522852D01*
X219259224Y-68522852D01*
X220440177Y-68103805D02*
X220059224Y-68103805D01*
X220021129Y-68484757D01*
X220059224Y-68446662D01*
X220135415Y-68408567D01*
X220325891Y-68408567D01*
X220402081Y-68446662D01*
X220440177Y-68484757D01*
X220478272Y-68560948D01*
X220478272Y-68751424D01*
X220440177Y-68827614D01*
X220402081Y-68865710D01*
X220325891Y-68903805D01*
X220135415Y-68903805D01*
X220059224Y-68865710D01*
X220021129Y-68827614D01*
X221214967Y-63747605D02*
X220948300Y-63366652D01*
X220757824Y-63747605D02*
X220757824Y-62947605D01*
X221062586Y-62947605D01*
X221138777Y-62985700D01*
X221176872Y-63023795D01*
X221214967Y-63099986D01*
X221214967Y-63214271D01*
X221176872Y-63290462D01*
X221138777Y-63328557D01*
X221062586Y-63366652D01*
X220757824Y-63366652D01*
X221900681Y-62947605D02*
X221748300Y-62947605D01*
X221672110Y-62985700D01*
X221634015Y-63023795D01*
X221557824Y-63138081D01*
X221519729Y-63290462D01*
X221519729Y-63595224D01*
X221557824Y-63671414D01*
X221595919Y-63709510D01*
X221672110Y-63747605D01*
X221824491Y-63747605D01*
X221900681Y-63709510D01*
X221938777Y-63671414D01*
X221976872Y-63595224D01*
X221976872Y-63404748D01*
X221938777Y-63328557D01*
X221900681Y-63290462D01*
X221824491Y-63252367D01*
X221672110Y-63252367D01*
X221595919Y-63290462D01*
X221557824Y-63328557D01*
X221519729Y-63404748D01*
X225304367Y-75711005D02*
X225037700Y-75330052D01*
X224847224Y-75711005D02*
X224847224Y-74911005D01*
X225151986Y-74911005D01*
X225228177Y-74949100D01*
X225266272Y-74987195D01*
X225304367Y-75063386D01*
X225304367Y-75177671D01*
X225266272Y-75253862D01*
X225228177Y-75291957D01*
X225151986Y-75330052D01*
X224847224Y-75330052D01*
X225571034Y-74911005D02*
X226104367Y-74911005D01*
X225761510Y-75711005D01*
X219068667Y-70173805D02*
X218802000Y-69792852D01*
X218611524Y-70173805D02*
X218611524Y-69373805D01*
X218916286Y-69373805D01*
X218992477Y-69411900D01*
X219030572Y-69449995D01*
X219068667Y-69526186D01*
X219068667Y-69640471D01*
X219030572Y-69716662D01*
X218992477Y-69754757D01*
X218916286Y-69792852D01*
X218611524Y-69792852D01*
X219525810Y-69716662D02*
X219449619Y-69678567D01*
X219411524Y-69640471D01*
X219373429Y-69564281D01*
X219373429Y-69526186D01*
X219411524Y-69449995D01*
X219449619Y-69411900D01*
X219525810Y-69373805D01*
X219678191Y-69373805D01*
X219754381Y-69411900D01*
X219792477Y-69449995D01*
X219830572Y-69526186D01*
X219830572Y-69564281D01*
X219792477Y-69640471D01*
X219754381Y-69678567D01*
X219678191Y-69716662D01*
X219525810Y-69716662D01*
X219449619Y-69754757D01*
X219411524Y-69792852D01*
X219373429Y-69869043D01*
X219373429Y-70021424D01*
X219411524Y-70097614D01*
X219449619Y-70135710D01*
X219525810Y-70173805D01*
X219678191Y-70173805D01*
X219754381Y-70135710D01*
X219792477Y-70097614D01*
X219830572Y-70021424D01*
X219830572Y-69869043D01*
X219792477Y-69792852D01*
X219754381Y-69754757D01*
X219678191Y-69716662D01*
X219068667Y-75368105D02*
X218802000Y-74987152D01*
X218611524Y-75368105D02*
X218611524Y-74568105D01*
X218916286Y-74568105D01*
X218992477Y-74606200D01*
X219030572Y-74644295D01*
X219068667Y-74720486D01*
X219068667Y-74834771D01*
X219030572Y-74910962D01*
X218992477Y-74949057D01*
X218916286Y-74987152D01*
X218611524Y-74987152D01*
X219449619Y-75368105D02*
X219602000Y-75368105D01*
X219678191Y-75330010D01*
X219716286Y-75291914D01*
X219792477Y-75177629D01*
X219830572Y-75025248D01*
X219830572Y-74720486D01*
X219792477Y-74644295D01*
X219754381Y-74606200D01*
X219678191Y-74568105D01*
X219525810Y-74568105D01*
X219449619Y-74606200D01*
X219411524Y-74644295D01*
X219373429Y-74720486D01*
X219373429Y-74910962D01*
X219411524Y-74987152D01*
X219449619Y-75025248D01*
X219525810Y-75063343D01*
X219678191Y-75063343D01*
X219754381Y-75025248D01*
X219792477Y-74987152D01*
X219830572Y-74910962D01*
X227427005Y-57537286D02*
X227046052Y-57803953D01*
X227427005Y-57994429D02*
X226627005Y-57994429D01*
X226627005Y-57689667D01*
X226665100Y-57613476D01*
X226703195Y-57575381D01*
X226779386Y-57537286D01*
X226893671Y-57537286D01*
X226969862Y-57575381D01*
X227007957Y-57613476D01*
X227046052Y-57689667D01*
X227046052Y-57994429D01*
X227427005Y-56775381D02*
X227427005Y-57232524D01*
X227427005Y-57003953D02*
X226627005Y-57003953D01*
X226741290Y-57080143D01*
X226817481Y-57156334D01*
X226855576Y-57232524D01*
X226627005Y-56280143D02*
X226627005Y-56203952D01*
X226665100Y-56127762D01*
X226703195Y-56089667D01*
X226779386Y-56051571D01*
X226931767Y-56013476D01*
X227122243Y-56013476D01*
X227274624Y-56051571D01*
X227350814Y-56089667D01*
X227388910Y-56127762D01*
X227427005Y-56203952D01*
X227427005Y-56280143D01*
X227388910Y-56356333D01*
X227350814Y-56394429D01*
X227274624Y-56432524D01*
X227122243Y-56470619D01*
X226931767Y-56470619D01*
X226779386Y-56432524D01*
X226703195Y-56394429D01*
X226665100Y-56356333D01*
X226627005Y-56280143D01*
X193173305Y-75304586D02*
X192792352Y-75571253D01*
X193173305Y-75761729D02*
X192373305Y-75761729D01*
X192373305Y-75456967D01*
X192411400Y-75380776D01*
X192449495Y-75342681D01*
X192525686Y-75304586D01*
X192639971Y-75304586D01*
X192716162Y-75342681D01*
X192754257Y-75380776D01*
X192792352Y-75456967D01*
X192792352Y-75761729D01*
X193173305Y-74542681D02*
X193173305Y-74999824D01*
X193173305Y-74771253D02*
X192373305Y-74771253D01*
X192487590Y-74847443D01*
X192563781Y-74923634D01*
X192601876Y-74999824D01*
X193173305Y-73780776D02*
X193173305Y-74237919D01*
X193173305Y-74009348D02*
X192373305Y-74009348D01*
X192487590Y-74085538D01*
X192563781Y-74161729D01*
X192601876Y-74237919D01*
X186486933Y-82454710D02*
X186601219Y-82492805D01*
X186791695Y-82492805D01*
X186867885Y-82454710D01*
X186905981Y-82416614D01*
X186944076Y-82340424D01*
X186944076Y-82264233D01*
X186905981Y-82188043D01*
X186867885Y-82149948D01*
X186791695Y-82111852D01*
X186639314Y-82073757D01*
X186563123Y-82035662D01*
X186525028Y-81997567D01*
X186486933Y-81921376D01*
X186486933Y-81845186D01*
X186525028Y-81768995D01*
X186563123Y-81730900D01*
X186639314Y-81692805D01*
X186829790Y-81692805D01*
X186944076Y-81730900D01*
X187210743Y-81692805D02*
X187401219Y-82492805D01*
X187553600Y-81921376D01*
X187705981Y-82492805D01*
X187896457Y-81692805D01*
X188620267Y-82492805D02*
X188163124Y-82492805D01*
X188391695Y-82492805D02*
X188391695Y-81692805D01*
X188315505Y-81807090D01*
X188239314Y-81883281D01*
X188163124Y-81921376D01*
X231381376Y-67367205D02*
X231381376Y-68014824D01*
X231419471Y-68091014D01*
X231457567Y-68129110D01*
X231533757Y-68167205D01*
X231686138Y-68167205D01*
X231762329Y-68129110D01*
X231800424Y-68091014D01*
X231838519Y-68014824D01*
X231838519Y-67367205D01*
X232638519Y-68167205D02*
X232181376Y-68167205D01*
X232409947Y-68167205D02*
X232409947Y-67367205D01*
X232333757Y-67481490D01*
X232257566Y-67557681D01*
X232181376Y-67595776D01*
X219319855Y-58680274D02*
X219967474Y-58680274D01*
X220043664Y-58642179D01*
X220081760Y-58604083D01*
X220119855Y-58527893D01*
X220119855Y-58375512D01*
X220081760Y-58299321D01*
X220043664Y-58261226D01*
X219967474Y-58223131D01*
X219319855Y-58223131D01*
X219396045Y-57880274D02*
X219357950Y-57842179D01*
X219319855Y-57765988D01*
X219319855Y-57575512D01*
X219357950Y-57499322D01*
X219396045Y-57461226D01*
X219472236Y-57423131D01*
X219548426Y-57423131D01*
X219662712Y-57461226D01*
X220119855Y-57918369D01*
X220119855Y-57423131D01*
X185483576Y-73687105D02*
X185483576Y-74334724D01*
X185521671Y-74410914D01*
X185559767Y-74449010D01*
X185635957Y-74487105D01*
X185788338Y-74487105D01*
X185864529Y-74449010D01*
X185902624Y-74410914D01*
X185940719Y-74334724D01*
X185940719Y-73687105D01*
X186245481Y-73687105D02*
X186740719Y-73687105D01*
X186474052Y-73991867D01*
X186588338Y-73991867D01*
X186664528Y-74029962D01*
X186702624Y-74068057D01*
X186740719Y-74144248D01*
X186740719Y-74334724D01*
X186702624Y-74410914D01*
X186664528Y-74449010D01*
X186588338Y-74487105D01*
X186359766Y-74487105D01*
X186283576Y-74449010D01*
X186245481Y-74410914D01*
X203542976Y-53727405D02*
X203542976Y-54375024D01*
X203581071Y-54451214D01*
X203619167Y-54489310D01*
X203695357Y-54527405D01*
X203847738Y-54527405D01*
X203923929Y-54489310D01*
X203962024Y-54451214D01*
X204000119Y-54375024D01*
X204000119Y-53727405D01*
X204723928Y-53994071D02*
X204723928Y-54527405D01*
X204533452Y-53689310D02*
X204342976Y-54260738D01*
X204838214Y-54260738D01*
X218744891Y-60363405D02*
X218935367Y-61163405D01*
X219087748Y-60591976D01*
X219240129Y-61163405D01*
X219430605Y-60363405D01*
X220154415Y-61163405D02*
X219697272Y-61163405D01*
X219925843Y-61163405D02*
X219925843Y-60363405D01*
X219849653Y-60477690D01*
X219773462Y-60553881D01*
X219697272Y-60591976D01*
X210718491Y-56794705D02*
X210908967Y-57594705D01*
X211061348Y-57023276D01*
X211213729Y-57594705D01*
X211404205Y-56794705D01*
X211670872Y-56870895D02*
X211708967Y-56832800D01*
X211785158Y-56794705D01*
X211975634Y-56794705D01*
X212051824Y-56832800D01*
X212089920Y-56870895D01*
X212128015Y-56947086D01*
X212128015Y-57023276D01*
X212089920Y-57137562D01*
X211632777Y-57594705D01*
X212128015Y-57594705D01*
X232194191Y-65881305D02*
X232384667Y-66681305D01*
X232537048Y-66109876D01*
X232689429Y-66681305D01*
X232879905Y-65881305D01*
X233108477Y-65881305D02*
X233603715Y-65881305D01*
X233337048Y-66186067D01*
X233451334Y-66186067D01*
X233527524Y-66224162D01*
X233565620Y-66262257D01*
X233603715Y-66338448D01*
X233603715Y-66528924D01*
X233565620Y-66605114D01*
X233527524Y-66643210D01*
X233451334Y-66681305D01*
X233222762Y-66681305D01*
X233146572Y-66643210D01*
X233108477Y-66605114D01*
X208026091Y-56756605D02*
X208216567Y-57556605D01*
X208368948Y-56985176D01*
X208521329Y-57556605D01*
X208711805Y-56756605D01*
X209359424Y-57023271D02*
X209359424Y-57556605D01*
X209168948Y-56718510D02*
X208978472Y-57289938D01*
X209473710Y-57289938D01*
X222110391Y-73094905D02*
X222300867Y-73894905D01*
X222453248Y-73323476D01*
X222605629Y-73894905D01*
X222796105Y-73094905D01*
X223481820Y-73094905D02*
X223100867Y-73094905D01*
X223062772Y-73475857D01*
X223100867Y-73437762D01*
X223177058Y-73399667D01*
X223367534Y-73399667D01*
X223443724Y-73437762D01*
X223481820Y-73475857D01*
X223519915Y-73552048D01*
X223519915Y-73742524D01*
X223481820Y-73818714D01*
X223443724Y-73856810D01*
X223367534Y-73894905D01*
X223177058Y-73894905D01*
X223100867Y-73856810D01*
X223062772Y-73818714D01*
X207352991Y-82994305D02*
X207543467Y-83794305D01*
X207695848Y-83222876D01*
X207848229Y-83794305D01*
X208038705Y-82994305D01*
X208686324Y-82994305D02*
X208533943Y-82994305D01*
X208457753Y-83032400D01*
X208419658Y-83070495D01*
X208343467Y-83184781D01*
X208305372Y-83337162D01*
X208305372Y-83641924D01*
X208343467Y-83718114D01*
X208381562Y-83756210D01*
X208457753Y-83794305D01*
X208610134Y-83794305D01*
X208686324Y-83756210D01*
X208724420Y-83718114D01*
X208762515Y-83641924D01*
X208762515Y-83451448D01*
X208724420Y-83375257D01*
X208686324Y-83337162D01*
X208610134Y-83299067D01*
X208457753Y-83299067D01*
X208381562Y-83337162D01*
X208343467Y-83375257D01*
X208305372Y-83451448D01*
X193346740Y-60464641D02*
X193822931Y-60464641D01*
X192822931Y-60797974D02*
X193346740Y-60464641D01*
X192822931Y-60131307D01*
X193822931Y-59274164D02*
X193822931Y-59845593D01*
X193822931Y-59559879D02*
X192822931Y-59559879D01*
X192965788Y-59655117D01*
X193061026Y-59750355D01*
X193108645Y-59845593D01*
X207727614Y-76777814D02*
X207689519Y-76815910D01*
X207575233Y-76854005D01*
X207499043Y-76854005D01*
X207384757Y-76815910D01*
X207308566Y-76739719D01*
X207270471Y-76663529D01*
X207232376Y-76511148D01*
X207232376Y-76396862D01*
X207270471Y-76244481D01*
X207308566Y-76168290D01*
X207384757Y-76092100D01*
X207499043Y-76054005D01*
X207575233Y-76054005D01*
X207689519Y-76092100D01*
X207727614Y-76130195D01*
X208489519Y-76854005D02*
X208032376Y-76854005D01*
X208260947Y-76854005D02*
X208260947Y-76054005D01*
X208184757Y-76168290D01*
X208108566Y-76244481D01*
X208032376Y-76282576D01*
X208756186Y-76054005D02*
X209289519Y-76054005D01*
X208946662Y-76854005D01*
X201644324Y-66554305D02*
X201644324Y-65754305D01*
X201949086Y-65754305D01*
X202025277Y-65792400D01*
X202063372Y-65830495D01*
X202101467Y-65906686D01*
X202101467Y-66020971D01*
X202063372Y-66097162D01*
X202025277Y-66135257D01*
X201949086Y-66173352D01*
X201644324Y-66173352D01*
X202406229Y-65830495D02*
X202444324Y-65792400D01*
X202520515Y-65754305D01*
X202710991Y-65754305D01*
X202787181Y-65792400D01*
X202825277Y-65830495D01*
X202863372Y-65906686D01*
X202863372Y-65982876D01*
X202825277Y-66097162D01*
X202368134Y-66554305D01*
X202863372Y-66554305D01*
X215157014Y-79292386D02*
X215195110Y-79330481D01*
X215233205Y-79444767D01*
X215233205Y-79520957D01*
X215195110Y-79635243D01*
X215118919Y-79711434D01*
X215042729Y-79749529D01*
X214890348Y-79787624D01*
X214776062Y-79787624D01*
X214623681Y-79749529D01*
X214547490Y-79711434D01*
X214471300Y-79635243D01*
X214433205Y-79520957D01*
X214433205Y-79444767D01*
X214471300Y-79330481D01*
X214509395Y-79292386D01*
X215233205Y-78530481D02*
X215233205Y-78987624D01*
X215233205Y-78759053D02*
X214433205Y-78759053D01*
X214547490Y-78835243D01*
X214623681Y-78911434D01*
X214661776Y-78987624D01*
X215233205Y-78149529D02*
X215233205Y-77997148D01*
X215195110Y-77920957D01*
X215157014Y-77882862D01*
X215042729Y-77806671D01*
X214890348Y-77768576D01*
X214585586Y-77768576D01*
X214509395Y-77806671D01*
X214471300Y-77844767D01*
X214433205Y-77920957D01*
X214433205Y-78073338D01*
X214471300Y-78149529D01*
X214509395Y-78187624D01*
X214585586Y-78225719D01*
X214776062Y-78225719D01*
X214852252Y-78187624D01*
X214890348Y-78149529D01*
X214928443Y-78073338D01*
X214928443Y-77920957D01*
X214890348Y-77844767D01*
X214852252Y-77806671D01*
X214776062Y-77768576D01*
X207460814Y-61931486D02*
X207498910Y-61969581D01*
X207537005Y-62083867D01*
X207537005Y-62160057D01*
X207498910Y-62274343D01*
X207422719Y-62350534D01*
X207346529Y-62388629D01*
X207194148Y-62426724D01*
X207079862Y-62426724D01*
X206927481Y-62388629D01*
X206851290Y-62350534D01*
X206775100Y-62274343D01*
X206737005Y-62160057D01*
X206737005Y-62083867D01*
X206775100Y-61969581D01*
X206813195Y-61931486D01*
X206813195Y-61626724D02*
X206775100Y-61588629D01*
X206737005Y-61512438D01*
X206737005Y-61321962D01*
X206775100Y-61245772D01*
X206813195Y-61207676D01*
X206889386Y-61169581D01*
X206965576Y-61169581D01*
X207079862Y-61207676D01*
X207537005Y-61664819D01*
X207537005Y-61169581D01*
X206737005Y-60674343D02*
X206737005Y-60598152D01*
X206775100Y-60521962D01*
X206813195Y-60483867D01*
X206889386Y-60445771D01*
X207041767Y-60407676D01*
X207232243Y-60407676D01*
X207384624Y-60445771D01*
X207460814Y-60483867D01*
X207498910Y-60521962D01*
X207537005Y-60598152D01*
X207537005Y-60674343D01*
X207498910Y-60750533D01*
X207460814Y-60788629D01*
X207384624Y-60826724D01*
X207232243Y-60864819D01*
X207041767Y-60864819D01*
X206889386Y-60826724D01*
X206813195Y-60788629D01*
X206775100Y-60750533D01*
X206737005Y-60674343D01*
X211397914Y-78809805D02*
X211131247Y-78428852D01*
X210940771Y-78809805D02*
X210940771Y-78009805D01*
X211245533Y-78009805D01*
X211321724Y-78047900D01*
X211359819Y-78085995D01*
X211397914Y-78162186D01*
X211397914Y-78276471D01*
X211359819Y-78352662D01*
X211321724Y-78390757D01*
X211245533Y-78428852D01*
X210940771Y-78428852D01*
X212159819Y-78809805D02*
X211702676Y-78809805D01*
X211931247Y-78809805D02*
X211931247Y-78009805D01*
X211855057Y-78124090D01*
X211778866Y-78200281D01*
X211702676Y-78238376D01*
X212464581Y-78085995D02*
X212502676Y-78047900D01*
X212578867Y-78009805D01*
X212769343Y-78009805D01*
X212845533Y-78047900D01*
X212883629Y-78085995D01*
X212921724Y-78162186D01*
X212921724Y-78238376D01*
X212883629Y-78352662D01*
X212426486Y-78809805D01*
X212921724Y-78809805D01*
X223380376Y-77392705D02*
X223380376Y-78040324D01*
X223418471Y-78116514D01*
X223456567Y-78154610D01*
X223532757Y-78192705D01*
X223685138Y-78192705D01*
X223761329Y-78154610D01*
X223799424Y-78116514D01*
X223837519Y-78040324D01*
X223837519Y-77392705D01*
X224599424Y-77392705D02*
X224218471Y-77392705D01*
X224180376Y-77773657D01*
X224218471Y-77735562D01*
X224294662Y-77697467D01*
X224485138Y-77697467D01*
X224561328Y-77735562D01*
X224599424Y-77773657D01*
X224637519Y-77849848D01*
X224637519Y-78040324D01*
X224599424Y-78116514D01*
X224561328Y-78154610D01*
X224485138Y-78192705D01*
X224294662Y-78192705D01*
X224218471Y-78154610D01*
X224180376Y-78116514D01*
X188321905Y-57600776D02*
X187521905Y-57600776D01*
X187521905Y-57296014D01*
X187560000Y-57219823D01*
X187598095Y-57181728D01*
X187674286Y-57143633D01*
X187788571Y-57143633D01*
X187864762Y-57181728D01*
X187902857Y-57219823D01*
X187940952Y-57296014D01*
X187940952Y-57600776D01*
X188321905Y-56381728D02*
X188321905Y-56838871D01*
X188321905Y-56610300D02*
X187521905Y-56610300D01*
X187636190Y-56686490D01*
X187712381Y-56762681D01*
X187750476Y-56838871D01*
X223329905Y-63823776D02*
X222529905Y-63823776D01*
X222529905Y-63519014D01*
X222568000Y-63442823D01*
X222606095Y-63404728D01*
X222682286Y-63366633D01*
X222796571Y-63366633D01*
X222872762Y-63404728D01*
X222910857Y-63442823D01*
X222948952Y-63519014D01*
X222948952Y-63823776D01*
X222796571Y-62680919D02*
X223329905Y-62680919D01*
X222491810Y-62871395D02*
X223063238Y-63061871D01*
X223063238Y-62566633D01*
X234435724Y-61265205D02*
X234435724Y-60465205D01*
X234740486Y-60465205D01*
X234816677Y-60503300D01*
X234854772Y-60541395D01*
X234892867Y-60617586D01*
X234892867Y-60731871D01*
X234854772Y-60808062D01*
X234816677Y-60846157D01*
X234740486Y-60884252D01*
X234435724Y-60884252D01*
X235616677Y-60465205D02*
X235235724Y-60465205D01*
X235197629Y-60846157D01*
X235235724Y-60808062D01*
X235311915Y-60769967D01*
X235502391Y-60769967D01*
X235578581Y-60808062D01*
X235616677Y-60846157D01*
X235654772Y-60922348D01*
X235654772Y-61112824D01*
X235616677Y-61189014D01*
X235578581Y-61227110D01*
X235502391Y-61265205D01*
X235311915Y-61265205D01*
X235235724Y-61227110D01*
X235197629Y-61189014D01*
X179076424Y-80879905D02*
X179076424Y-80079905D01*
X179381186Y-80079905D01*
X179457377Y-80118000D01*
X179495472Y-80156095D01*
X179533567Y-80232286D01*
X179533567Y-80346571D01*
X179495472Y-80422762D01*
X179457377Y-80460857D01*
X179381186Y-80498952D01*
X179076424Y-80498952D01*
X180219281Y-80079905D02*
X180066900Y-80079905D01*
X179990710Y-80118000D01*
X179952615Y-80156095D01*
X179876424Y-80270381D01*
X179838329Y-80422762D01*
X179838329Y-80727524D01*
X179876424Y-80803714D01*
X179914519Y-80841810D01*
X179990710Y-80879905D01*
X180143091Y-80879905D01*
X180219281Y-80841810D01*
X180257377Y-80803714D01*
X180295472Y-80727524D01*
X180295472Y-80537048D01*
X180257377Y-80460857D01*
X180219281Y-80422762D01*
X180143091Y-80384667D01*
X179990710Y-80384667D01*
X179914519Y-80422762D01*
X179876424Y-80460857D01*
X179838329Y-80537048D01*
M02*
