M48
;DRILL file {KiCad 4.0.2-stable} date 18/05/2017 16:50:48
;FORMAT={-:-/ absolute / inch / decimal}
FMAT,2
INCH,TZ
T1C0.016
T2C0.020
T3C0.031
T4C0.039
T5C0.087
%
G90
G05
M72
T1
X6.9995Y-2.7075
X7.0545Y-2.4915
X7.055Y-2.5485
X7.105Y-2.672
X7.1055Y-2.7035
X7.261Y-3.2185
X7.5055Y-3.219
X7.5485Y-2.672
X7.5485Y-2.736
X7.6365Y-2.576
X7.693Y-2.5765
X7.742Y-2.576
X7.7695Y-2.638
X7.7695Y-2.708
X7.8347Y-2.6435
X7.8367Y-2.0968
X7.9895Y-2.5255
X8.0245Y-2.576
X8.0602Y-2.6117
X8.0875Y-2.5265
X8.088Y-2.1415
X8.099Y-2.651
X8.0992Y-2.6507
X8.1005Y-2.704
X8.101Y-2.759
X8.1405Y-2.7975
X8.147Y-2.607
X8.195Y-2.56
X8.2295Y-3.284
X8.3115Y-3.2835
X8.349Y-2.888
X8.451Y-2.94
X8.453Y-3.012
X8.506Y-3.0175
X8.586Y-3.001
X8.748Y-3.306
X8.768Y-2.638
X8.7785Y-2.745
X8.83Y-2.5225
X8.89Y-2.5225
X8.9185Y-2.817
X8.9215Y-2.8915
X8.9605Y-2.394
X8.9605Y-2.4445
X8.9605Y-2.4995
X9.0215Y-2.3615
X9.098Y-2.3615
X9.139Y-3.2715
T2
X8.709Y-2.5025
X8.767Y-2.437
X8.8735Y-2.211
T3
X8.1895Y-3.01
X8.206Y-2.332
X8.3055Y-2.3325
X8.6405Y-2.4725
X8.774Y-2.813
X9.2545Y-2.673
T4
X7.0475Y-2.339
X7.073Y-2.9735
X7.073Y-3.0735
X7.1475Y-2.339
X7.2475Y-2.339
X7.8605Y-2.963
X7.8615Y-3.1095
X7.9605Y-2.963
X7.961Y-2.712
X7.961Y-2.812
X7.9615Y-3.1095
X8.483Y-2.326
X8.583Y-2.326
X9.031Y-3.164
X9.031Y-3.264
X9.248Y-3.111
X9.248Y-3.211
X9.2545Y-2.1985
X9.2545Y-2.2985
X9.2545Y-2.444
X9.2545Y-2.544
X9.2545Y-2.791
X9.2545Y-2.891
T5
X7.0685Y-3.2335
X7.069Y-2.171
T0
M30
