G04 #@! TF.FileFunction,Copper,L2,Bot,Signal*
%FSLAX46Y46*%
G04 Gerber Fmt 4.6, Leading zero omitted, Abs format (unit mm)*
G04 Created by KiCad (PCBNEW 4.0.2-stable) date 18/05/2017 16:50:39*
%MOMM*%
G01*
G04 APERTURE LIST*
%ADD10C,0.100000*%
%ADD11C,3.800000*%
%ADD12R,1.700000X1.700000*%
%ADD13O,1.700000X1.700000*%
%ADD14C,1.500000*%
%ADD15C,0.600000*%
%ADD16C,0.800000*%
%ADD17C,1.000000*%
%ADD18C,0.500000*%
%ADD19C,0.400000*%
%ADD20C,0.254000*%
G04 APERTURE END LIST*
D10*
D11*
X179552600Y-55143400D03*
D12*
X235064300Y-73431400D03*
D13*
X235064300Y-70891400D03*
D12*
X235064300Y-58381900D03*
D13*
X235064300Y-55841900D03*
D12*
X202222100Y-78981300D03*
D13*
X199682100Y-78981300D03*
D12*
X202196700Y-75260200D03*
D13*
X199656700Y-75260200D03*
D12*
X234899200Y-79019400D03*
D13*
X234899200Y-81559400D03*
D14*
X219468700Y-62801500D03*
X210959700Y-59245500D03*
X235064300Y-67894200D03*
X208432400Y-59232800D03*
X222859600Y-71450200D03*
X208013300Y-76454000D03*
D12*
X202209400Y-71424800D03*
D13*
X202209400Y-68884800D03*
D12*
X184086500Y-59410600D03*
D13*
X181546500Y-59410600D03*
X179006500Y-59410600D03*
D12*
X179654200Y-78066900D03*
D13*
X179654200Y-75526900D03*
D12*
X215468200Y-59080400D03*
D13*
X218008200Y-59080400D03*
D12*
X235064300Y-62077600D03*
D13*
X235064300Y-64617600D03*
D12*
X229387400Y-82905600D03*
D13*
X229387400Y-80365600D03*
D11*
X179539900Y-82130900D03*
D15*
X226606100Y-73444100D03*
X216052400Y-76644500D03*
X206768700Y-71056500D03*
X218084400Y-76225400D03*
X224282000Y-64071500D03*
X225806000Y-64071500D03*
X206933800Y-66217800D03*
X208153000Y-65024000D03*
D16*
X221208600Y-63563500D03*
D15*
X179184300Y-63284100D03*
X179197000Y-64731900D03*
X196646800Y-65430400D03*
X195402200Y-65443100D03*
X193967100Y-65430400D03*
X227596700Y-60807600D03*
X227596700Y-62090300D03*
X227596700Y-63487300D03*
X203822300Y-65430400D03*
X205752700Y-68681600D03*
X204730350Y-66338450D03*
X205714600Y-67335400D03*
X205720950Y-67329050D03*
X205765400Y-70078600D03*
X232130600Y-83096100D03*
X222199200Y-83972400D03*
X211112100Y-83400900D03*
X209029300Y-83413600D03*
D16*
X222681800Y-61899800D03*
D15*
X180479700Y-68668900D03*
X180467000Y-67868800D03*
X199002650Y-67144900D03*
D16*
X225386900Y-56159400D03*
D15*
X184429400Y-81749900D03*
X190639700Y-81762600D03*
X212064600Y-73355200D03*
X229146100Y-59982100D03*
X231089200Y-59982100D03*
X177787300Y-68770500D03*
X205435200Y-54394100D03*
X202933300Y-64147700D03*
X205422500Y-64173100D03*
X191731900Y-69494400D03*
X191731900Y-67868800D03*
X226529900Y-71551800D03*
X222707200Y-67005200D03*
X222973900Y-69723000D03*
X199053450Y-53257450D03*
X197345300Y-68783200D03*
X197345300Y-67005200D03*
X214706200Y-76504800D03*
X214655400Y-74676000D03*
D17*
X226606100Y-73444100D02*
X219151200Y-73444100D01*
X219151200Y-73444100D02*
X218084400Y-74510900D01*
X218084400Y-76225400D02*
X218071700Y-76225400D01*
X217652600Y-76644500D02*
X216052400Y-76644500D01*
X218071700Y-76225400D02*
X217652600Y-76644500D01*
X218084400Y-76225400D02*
X218084400Y-74510900D01*
X206768700Y-71081900D02*
X207251300Y-71564500D01*
X215138000Y-71564500D02*
X207251300Y-71564500D01*
X218084400Y-74510900D02*
X215138000Y-71564500D01*
X208153000Y-65024000D02*
X208191100Y-65024000D01*
X220903800Y-53174900D02*
X224701100Y-53174900D01*
X219227400Y-54851300D02*
X220903800Y-53174900D01*
X227025200Y-59715400D02*
X227025200Y-60325000D01*
X227025200Y-55499000D02*
X227025200Y-59715400D01*
X224701100Y-53174900D02*
X227025200Y-55499000D01*
X217995500Y-56083200D02*
X219227400Y-54851300D01*
X214731600Y-56083200D02*
X217995500Y-56083200D01*
X213575900Y-57238900D02*
X214731600Y-56083200D01*
X227025200Y-60325000D02*
X227596700Y-60896500D01*
X212750400Y-58064400D02*
X213575900Y-57238900D01*
X212750400Y-60464700D02*
X212750400Y-58064400D01*
X208191100Y-65024000D02*
X212750400Y-60464700D01*
X206768700Y-71081900D02*
X206768700Y-71056500D01*
X206756000Y-71069200D02*
X206768700Y-71056500D01*
X206768700Y-71056500D02*
X206756000Y-71069200D01*
X206933800Y-66217800D02*
X206959200Y-66217800D01*
X206959200Y-66217800D02*
X208153000Y-65024000D01*
X207454500Y-65722500D02*
X208153000Y-65024000D01*
X205841600Y-67335400D02*
X205714600Y-67335400D01*
X205841600Y-67335400D02*
X207454500Y-65722500D01*
X221208600Y-63563500D02*
X221716600Y-64071500D01*
X227571300Y-63487300D02*
X227596700Y-63487300D01*
X226987100Y-64071500D02*
X227571300Y-63487300D01*
X226428300Y-64071500D02*
X226987100Y-64071500D01*
X221716600Y-64071500D02*
X224282000Y-64071500D01*
X224282000Y-64071500D02*
X225806000Y-64071500D01*
X225806000Y-64071500D02*
X226428300Y-64071500D01*
X201612500Y-65430400D02*
X196646800Y-65430400D01*
X179184300Y-63284100D02*
X179197000Y-63296800D01*
X179197000Y-63296800D02*
X179197000Y-63423800D01*
X179197000Y-64731900D02*
X179197000Y-63423800D01*
D18*
X179197000Y-63423800D02*
X179197000Y-63271400D01*
D17*
X193916300Y-65430400D02*
X192481200Y-63995300D01*
X192481200Y-63995300D02*
X192481200Y-62928500D01*
X192481200Y-62928500D02*
X191249300Y-61696600D01*
X191249300Y-61696600D02*
X180771800Y-61696600D01*
X180771800Y-61696600D02*
X179197000Y-63271400D01*
X193967100Y-65430400D02*
X193916300Y-65430400D01*
D18*
X195402200Y-65443100D02*
X195402200Y-65430400D01*
X195402200Y-65430400D02*
X195402200Y-65443100D01*
X195402200Y-65443100D02*
X195402200Y-65430400D01*
D17*
X202272900Y-65430400D02*
X201612500Y-65430400D01*
X202272900Y-65405000D02*
X202272900Y-65430400D01*
X202272900Y-65405000D02*
X202272900Y-65430400D01*
X203822300Y-65430400D02*
X202272900Y-65430400D01*
X196646800Y-65430400D02*
X195402200Y-65430400D01*
X195402200Y-65430400D02*
X193967100Y-65430400D01*
X227596700Y-60807600D02*
X227596700Y-60896500D01*
X227596700Y-60896500D02*
X227596700Y-62090300D01*
X227596700Y-62090300D02*
X227596700Y-63487300D01*
X204730350Y-66338450D02*
X203822300Y-65430400D01*
X206768700Y-71081900D02*
X205765400Y-70078600D01*
X205752700Y-68681600D02*
X205765400Y-68681600D01*
X205765400Y-68681600D02*
X205752700Y-68681600D01*
X205752700Y-68681600D02*
X205765400Y-68681600D01*
X205714600Y-67335400D02*
X205720950Y-67329050D01*
X205765400Y-70015100D02*
X205765400Y-70078600D01*
X205765400Y-67373500D02*
X204730350Y-66338450D01*
X205765400Y-70015100D02*
X205765400Y-68681600D01*
X205765400Y-68681600D02*
X205765400Y-67373500D01*
D19*
X199002650Y-67144900D02*
X199009000Y-67144900D01*
D20*
G36*
X178118514Y-52993078D02*
X177404784Y-53705563D01*
X177018041Y-54636945D01*
X177017161Y-55645431D01*
X177402278Y-56577486D01*
X178114763Y-57291216D01*
X179046145Y-57677959D01*
X180054631Y-57678839D01*
X180986686Y-57293722D01*
X181700416Y-56581237D01*
X182087159Y-55649855D01*
X182088039Y-54641369D01*
X181702922Y-53709314D01*
X180990437Y-52995584D01*
X180195987Y-52665700D01*
X219807868Y-52665700D01*
X217525368Y-54948200D01*
X214731600Y-54948200D01*
X214297255Y-55034596D01*
X213929034Y-55280634D01*
X211947834Y-57261834D01*
X211701797Y-57630054D01*
X211623904Y-58021646D01*
X211236402Y-57860741D01*
X210685415Y-57860260D01*
X210176185Y-58070669D01*
X209786239Y-58459936D01*
X209698720Y-58670705D01*
X209607231Y-58449285D01*
X209217964Y-58059339D01*
X208709102Y-57848041D01*
X208158115Y-57847560D01*
X207648885Y-58057969D01*
X207258939Y-58447236D01*
X207047641Y-58956098D01*
X207047160Y-59507085D01*
X207257569Y-60016315D01*
X207646836Y-60406261D01*
X208155698Y-60617559D01*
X208706685Y-60618040D01*
X209215915Y-60407631D01*
X209605861Y-60018364D01*
X209693380Y-59807595D01*
X209784869Y-60029015D01*
X210174136Y-60418961D01*
X210682998Y-60630259D01*
X210979450Y-60630518D01*
X207465255Y-64144713D01*
X207403077Y-64186259D01*
X207350434Y-64221434D01*
X206207781Y-65364087D01*
X206131234Y-65415234D01*
X206080087Y-65491781D01*
X205784450Y-65787418D01*
X204624866Y-64627834D01*
X204585944Y-64601827D01*
X204256646Y-64381797D01*
X203822300Y-64295400D01*
X202400594Y-64295400D01*
X202272900Y-64270000D01*
X202145206Y-64295400D01*
X194386432Y-64295400D01*
X193616200Y-63525168D01*
X193616200Y-62928500D01*
X193607232Y-62883417D01*
X193529804Y-62494155D01*
X193283766Y-62125934D01*
X192051866Y-60894034D01*
X191986563Y-60850400D01*
X191683646Y-60647997D01*
X191249300Y-60561600D01*
X185499376Y-60561600D01*
X185532931Y-60512490D01*
X185583940Y-60260600D01*
X185583940Y-58560600D01*
X185539662Y-58325283D01*
X185400590Y-58109159D01*
X185188390Y-57964169D01*
X184936500Y-57913160D01*
X183236500Y-57913160D01*
X183001183Y-57957438D01*
X182785059Y-58096510D01*
X182640069Y-58308710D01*
X182626414Y-58376141D01*
X182596554Y-58331453D01*
X182114785Y-58009546D01*
X181546500Y-57896507D01*
X180978215Y-58009546D01*
X180496446Y-58331453D01*
X180276500Y-58660626D01*
X180056554Y-58331453D01*
X179574785Y-58009546D01*
X179006500Y-57896507D01*
X178438215Y-58009546D01*
X177956446Y-58331453D01*
X177634539Y-58813222D01*
X177521500Y-59381507D01*
X177521500Y-59439693D01*
X177634539Y-60007978D01*
X177956446Y-60489747D01*
X178438215Y-60811654D01*
X179006500Y-60924693D01*
X179574785Y-60811654D01*
X180056554Y-60489747D01*
X180276500Y-60160574D01*
X180496446Y-60489747D01*
X180642480Y-60587323D01*
X180337455Y-60647996D01*
X179969234Y-60894033D01*
X178394434Y-62468834D01*
X178389347Y-62476447D01*
X178381734Y-62481534D01*
X178135697Y-62849755D01*
X178049300Y-63284100D01*
X178062000Y-63347947D01*
X178062000Y-64731900D01*
X178148397Y-65166246D01*
X178394434Y-65534466D01*
X178762654Y-65780503D01*
X179197000Y-65866900D01*
X179631346Y-65780503D01*
X179999566Y-65534466D01*
X180245603Y-65166246D01*
X180332000Y-64731900D01*
X180332000Y-63741532D01*
X181241933Y-62831600D01*
X190779168Y-62831600D01*
X191346200Y-63398632D01*
X191346200Y-63995300D01*
X191432597Y-64429646D01*
X191634557Y-64731900D01*
X191678634Y-64797866D01*
X193113734Y-66232966D01*
X193481954Y-66479003D01*
X193916300Y-66565400D01*
X203352168Y-66565400D01*
X204630400Y-67843632D01*
X204630400Y-68617753D01*
X204617700Y-68681600D01*
X204630400Y-68745447D01*
X204630400Y-70078600D01*
X204716797Y-70512946D01*
X204883165Y-70761933D01*
X204962834Y-70881166D01*
X205966133Y-71884466D01*
X205966136Y-71884468D01*
X206448733Y-72367066D01*
X206687628Y-72526690D01*
X206816954Y-72613103D01*
X207251300Y-72699500D01*
X214667868Y-72699500D01*
X216949400Y-74981032D01*
X216949400Y-75509500D01*
X216052400Y-75509500D01*
X215618054Y-75595897D01*
X215249834Y-75841934D01*
X215003797Y-76210154D01*
X214917400Y-76644500D01*
X215003797Y-77078846D01*
X215249834Y-77447066D01*
X215618054Y-77693103D01*
X216052400Y-77779500D01*
X217652600Y-77779500D01*
X218086946Y-77693103D01*
X218455166Y-77447066D01*
X218848692Y-77053540D01*
X218886966Y-77027966D01*
X219133003Y-76659746D01*
X219219400Y-76225400D01*
X219219400Y-74981032D01*
X219621332Y-74579100D01*
X226606100Y-74579100D01*
X227040446Y-74492703D01*
X227408666Y-74246666D01*
X227654703Y-73878446D01*
X227741100Y-73444100D01*
X227654703Y-73009754D01*
X227408666Y-72641534D01*
X227040446Y-72395497D01*
X226606100Y-72309100D01*
X223959597Y-72309100D01*
X224033061Y-72235764D01*
X224244359Y-71726902D01*
X224244840Y-71175915D01*
X224034431Y-70666685D01*
X223645164Y-70276739D01*
X223136302Y-70065441D01*
X222585315Y-70064960D01*
X222076085Y-70275369D01*
X221686139Y-70664636D01*
X221474841Y-71173498D01*
X221474360Y-71724485D01*
X221684769Y-72233715D01*
X221760023Y-72309100D01*
X219151200Y-72309100D01*
X218716854Y-72395497D01*
X218348634Y-72641534D01*
X218084400Y-72905768D01*
X215940566Y-70761934D01*
X215794949Y-70664636D01*
X215572346Y-70515897D01*
X215138000Y-70429500D01*
X207721432Y-70429500D01*
X207622418Y-70330486D01*
X207571267Y-70253933D01*
X207494717Y-70202784D01*
X206900400Y-69608468D01*
X206900400Y-68168485D01*
X233679060Y-68168485D01*
X233889469Y-68677715D01*
X234278736Y-69067661D01*
X234787598Y-69278959D01*
X235338585Y-69279440D01*
X235847815Y-69069031D01*
X236237761Y-68679764D01*
X236449059Y-68170902D01*
X236449540Y-67619915D01*
X236239131Y-67110685D01*
X235849864Y-66720739D01*
X235341002Y-66509441D01*
X234790015Y-66508960D01*
X234280785Y-66719369D01*
X233890839Y-67108636D01*
X233679541Y-67617498D01*
X233679060Y-68168485D01*
X206900400Y-68168485D01*
X206900400Y-67881732D01*
X208878845Y-65903287D01*
X208993666Y-65826566D01*
X213552966Y-61267266D01*
X213627671Y-61155462D01*
X213799003Y-60899046D01*
X213885400Y-60464700D01*
X213885400Y-58534532D01*
X213970760Y-58449172D01*
X213970760Y-59930400D01*
X214015038Y-60165717D01*
X214154110Y-60381841D01*
X214366310Y-60526831D01*
X214618200Y-60577840D01*
X216318200Y-60577840D01*
X216553517Y-60533562D01*
X216769641Y-60394490D01*
X216914631Y-60182290D01*
X216928286Y-60114859D01*
X216958146Y-60159547D01*
X217439915Y-60481454D01*
X218008200Y-60594493D01*
X218576485Y-60481454D01*
X219058254Y-60159547D01*
X219380161Y-59677778D01*
X219493200Y-59109493D01*
X219493200Y-59051307D01*
X219380161Y-58483022D01*
X219058254Y-58001253D01*
X218576485Y-57679346D01*
X218008200Y-57566307D01*
X217439915Y-57679346D01*
X216958146Y-58001253D01*
X216930350Y-58042852D01*
X216921362Y-57995083D01*
X216782290Y-57778959D01*
X216570090Y-57633969D01*
X216318200Y-57582960D01*
X214836972Y-57582960D01*
X215201732Y-57218200D01*
X217995500Y-57218200D01*
X218429846Y-57131803D01*
X218798066Y-56885766D01*
X221373932Y-54309900D01*
X224230968Y-54309900D01*
X225890200Y-55969132D01*
X225890200Y-60325000D01*
X225976597Y-60759346D01*
X226121167Y-60975710D01*
X226222634Y-61127566D01*
X226461700Y-61366632D01*
X226461700Y-62936500D01*
X222186732Y-62936500D01*
X222011166Y-62760934D01*
X221642945Y-62514897D01*
X221208600Y-62428500D01*
X220843185Y-62501186D01*
X220643531Y-62017985D01*
X220254264Y-61628039D01*
X219745402Y-61416741D01*
X219194415Y-61416260D01*
X218685185Y-61626669D01*
X218295239Y-62015936D01*
X218083941Y-62524798D01*
X218083460Y-63075785D01*
X218293869Y-63585015D01*
X218683136Y-63974961D01*
X219191998Y-64186259D01*
X219742985Y-64186740D01*
X220168684Y-64010845D01*
X220406034Y-64366066D01*
X220914033Y-64874066D01*
X221226426Y-65082800D01*
X221282254Y-65120103D01*
X221716600Y-65206500D01*
X226987100Y-65206500D01*
X227421446Y-65120103D01*
X227789666Y-64874066D01*
X228322721Y-64341012D01*
X228399266Y-64289866D01*
X228645303Y-63921646D01*
X228731700Y-63487300D01*
X228731700Y-60807600D01*
X228645303Y-60373254D01*
X228399266Y-60005034D01*
X228160200Y-59845295D01*
X228160200Y-55499000D01*
X228073803Y-55064654D01*
X227827766Y-54696434D01*
X225797032Y-52665700D01*
X236449800Y-52665700D01*
X236449800Y-55250337D01*
X236143447Y-54791846D01*
X235661678Y-54469939D01*
X235093393Y-54356900D01*
X235035207Y-54356900D01*
X234466922Y-54469939D01*
X233985153Y-54791846D01*
X233663246Y-55273615D01*
X233550207Y-55841900D01*
X233663246Y-56410185D01*
X233985153Y-56891954D01*
X234026752Y-56919750D01*
X233978983Y-56928738D01*
X233762859Y-57067810D01*
X233617869Y-57280010D01*
X233566860Y-57531900D01*
X233566860Y-59231900D01*
X233611138Y-59467217D01*
X233750210Y-59683341D01*
X233962410Y-59828331D01*
X234214300Y-59879340D01*
X235914300Y-59879340D01*
X236149617Y-59835062D01*
X236365741Y-59695990D01*
X236449800Y-59572966D01*
X236449800Y-60887133D01*
X236378390Y-60776159D01*
X236166190Y-60631169D01*
X235914300Y-60580160D01*
X234214300Y-60580160D01*
X233978983Y-60624438D01*
X233762859Y-60763510D01*
X233617869Y-60975710D01*
X233566860Y-61227600D01*
X233566860Y-62927600D01*
X233611138Y-63162917D01*
X233750210Y-63379041D01*
X233962410Y-63524031D01*
X234029841Y-63537686D01*
X233985153Y-63567546D01*
X233663246Y-64049315D01*
X233550207Y-64617600D01*
X233663246Y-65185885D01*
X233985153Y-65667654D01*
X234466922Y-65989561D01*
X235035207Y-66102600D01*
X235093393Y-66102600D01*
X235661678Y-65989561D01*
X236143447Y-65667654D01*
X236449800Y-65209163D01*
X236449800Y-70299837D01*
X236143447Y-69841346D01*
X235661678Y-69519439D01*
X235093393Y-69406400D01*
X235035207Y-69406400D01*
X234466922Y-69519439D01*
X233985153Y-69841346D01*
X233663246Y-70323115D01*
X233550207Y-70891400D01*
X233663246Y-71459685D01*
X233985153Y-71941454D01*
X234026752Y-71969250D01*
X233978983Y-71978238D01*
X233762859Y-72117310D01*
X233617869Y-72329510D01*
X233566860Y-72581400D01*
X233566860Y-74281400D01*
X233611138Y-74516717D01*
X233750210Y-74732841D01*
X233962410Y-74877831D01*
X234214300Y-74928840D01*
X235914300Y-74928840D01*
X236149617Y-74884562D01*
X236365741Y-74745490D01*
X236449800Y-74622466D01*
X236449800Y-84507000D01*
X180427561Y-84507000D01*
X180973986Y-84281222D01*
X181687716Y-83568737D01*
X182074459Y-82637355D01*
X182075339Y-81628869D01*
X181690222Y-80696814D01*
X180977737Y-79983084D01*
X180046355Y-79596341D01*
X179037869Y-79595461D01*
X178105814Y-79980578D01*
X177392084Y-80693063D01*
X177005341Y-81624445D01*
X177004461Y-82632931D01*
X177389578Y-83564986D01*
X178102063Y-84278716D01*
X178651833Y-84507000D01*
X176897100Y-84507000D01*
X176897100Y-75526900D01*
X178140107Y-75526900D01*
X178253146Y-76095185D01*
X178575053Y-76576954D01*
X178616652Y-76604750D01*
X178568883Y-76613738D01*
X178352759Y-76752810D01*
X178207769Y-76965010D01*
X178156760Y-77216900D01*
X178156760Y-78916900D01*
X178201038Y-79152217D01*
X178340110Y-79368341D01*
X178552310Y-79513331D01*
X178804200Y-79564340D01*
X180504200Y-79564340D01*
X180739517Y-79520062D01*
X180955641Y-79380990D01*
X181100631Y-79168790D01*
X181144490Y-78952207D01*
X198197100Y-78952207D01*
X198197100Y-79010393D01*
X198310139Y-79578678D01*
X198632046Y-80060447D01*
X199113815Y-80382354D01*
X199682100Y-80495393D01*
X200250385Y-80382354D01*
X200732154Y-80060447D01*
X200759950Y-80018848D01*
X200768938Y-80066617D01*
X200908010Y-80282741D01*
X201120210Y-80427731D01*
X201372100Y-80478740D01*
X203072100Y-80478740D01*
X203307417Y-80434462D01*
X203414431Y-80365600D01*
X227873307Y-80365600D01*
X227986346Y-80933885D01*
X228308253Y-81415654D01*
X228349852Y-81443450D01*
X228302083Y-81452438D01*
X228085959Y-81591510D01*
X227940969Y-81803710D01*
X227889960Y-82055600D01*
X227889960Y-83755600D01*
X227934238Y-83990917D01*
X228073310Y-84207041D01*
X228285510Y-84352031D01*
X228537400Y-84403040D01*
X230237400Y-84403040D01*
X230472717Y-84358762D01*
X230688841Y-84219690D01*
X230833831Y-84007490D01*
X230884840Y-83755600D01*
X230884840Y-82055600D01*
X230858627Y-81916290D01*
X233457724Y-81916290D01*
X233627555Y-82326324D01*
X234017842Y-82754583D01*
X234542308Y-83000886D01*
X234772200Y-82880219D01*
X234772200Y-81686400D01*
X235026200Y-81686400D01*
X235026200Y-82880219D01*
X235256092Y-83000886D01*
X235780558Y-82754583D01*
X236170845Y-82326324D01*
X236340676Y-81916290D01*
X236219355Y-81686400D01*
X235026200Y-81686400D01*
X234772200Y-81686400D01*
X233579045Y-81686400D01*
X233457724Y-81916290D01*
X230858627Y-81916290D01*
X230840562Y-81820283D01*
X230701490Y-81604159D01*
X230489290Y-81459169D01*
X230421859Y-81445514D01*
X230466547Y-81415654D01*
X230788454Y-80933885D01*
X230901493Y-80365600D01*
X230788454Y-79797315D01*
X230466547Y-79315546D01*
X229984778Y-78993639D01*
X229416493Y-78880600D01*
X229358307Y-78880600D01*
X228790022Y-78993639D01*
X228308253Y-79315546D01*
X227986346Y-79797315D01*
X227873307Y-80365600D01*
X203414431Y-80365600D01*
X203523541Y-80295390D01*
X203668531Y-80083190D01*
X203719540Y-79831300D01*
X203719540Y-78169400D01*
X233401760Y-78169400D01*
X233401760Y-79869400D01*
X233446038Y-80104717D01*
X233585110Y-80320841D01*
X233797310Y-80465831D01*
X233905307Y-80487701D01*
X233627555Y-80792476D01*
X233457724Y-81202510D01*
X233579045Y-81432400D01*
X234772200Y-81432400D01*
X234772200Y-81412400D01*
X235026200Y-81412400D01*
X235026200Y-81432400D01*
X236219355Y-81432400D01*
X236340676Y-81202510D01*
X236170845Y-80792476D01*
X235894699Y-80489463D01*
X235984517Y-80472562D01*
X236200641Y-80333490D01*
X236345631Y-80121290D01*
X236396640Y-79869400D01*
X236396640Y-78169400D01*
X236352362Y-77934083D01*
X236213290Y-77717959D01*
X236001090Y-77572969D01*
X235749200Y-77521960D01*
X234049200Y-77521960D01*
X233813883Y-77566238D01*
X233597759Y-77705310D01*
X233452769Y-77917510D01*
X233401760Y-78169400D01*
X203719540Y-78169400D01*
X203719540Y-78131300D01*
X203675262Y-77895983D01*
X203536190Y-77679859D01*
X203323990Y-77534869D01*
X203072100Y-77483860D01*
X201372100Y-77483860D01*
X201136783Y-77528138D01*
X200920659Y-77667210D01*
X200775669Y-77879410D01*
X200762014Y-77946841D01*
X200732154Y-77902153D01*
X200250385Y-77580246D01*
X199682100Y-77467207D01*
X199113815Y-77580246D01*
X198632046Y-77902153D01*
X198310139Y-78383922D01*
X198197100Y-78952207D01*
X181144490Y-78952207D01*
X181151640Y-78916900D01*
X181151640Y-77216900D01*
X181107362Y-76981583D01*
X180968290Y-76765459D01*
X180756090Y-76620469D01*
X180688659Y-76606814D01*
X180733347Y-76576954D01*
X181055254Y-76095185D01*
X181168293Y-75526900D01*
X181109457Y-75231107D01*
X198171700Y-75231107D01*
X198171700Y-75289293D01*
X198284739Y-75857578D01*
X198606646Y-76339347D01*
X199088415Y-76661254D01*
X199656700Y-76774293D01*
X200224985Y-76661254D01*
X200706754Y-76339347D01*
X200734550Y-76297748D01*
X200743538Y-76345517D01*
X200882610Y-76561641D01*
X201094810Y-76706631D01*
X201346700Y-76757640D01*
X203046700Y-76757640D01*
X203202708Y-76728285D01*
X206628060Y-76728285D01*
X206838469Y-77237515D01*
X207227736Y-77627461D01*
X207736598Y-77838759D01*
X208287585Y-77839240D01*
X208796815Y-77628831D01*
X209186761Y-77239564D01*
X209398059Y-76730702D01*
X209398540Y-76179715D01*
X209188131Y-75670485D01*
X208798864Y-75280539D01*
X208290002Y-75069241D01*
X207739015Y-75068760D01*
X207229785Y-75279169D01*
X206839839Y-75668436D01*
X206628541Y-76177298D01*
X206628060Y-76728285D01*
X203202708Y-76728285D01*
X203282017Y-76713362D01*
X203498141Y-76574290D01*
X203643131Y-76362090D01*
X203694140Y-76110200D01*
X203694140Y-74410200D01*
X203649862Y-74174883D01*
X203510790Y-73958759D01*
X203298590Y-73813769D01*
X203046700Y-73762760D01*
X201346700Y-73762760D01*
X201111383Y-73807038D01*
X200895259Y-73946110D01*
X200750269Y-74158310D01*
X200736614Y-74225741D01*
X200706754Y-74181053D01*
X200224985Y-73859146D01*
X199656700Y-73746107D01*
X199088415Y-73859146D01*
X198606646Y-74181053D01*
X198284739Y-74662822D01*
X198171700Y-75231107D01*
X181109457Y-75231107D01*
X181055254Y-74958615D01*
X180733347Y-74476846D01*
X180251578Y-74154939D01*
X179683293Y-74041900D01*
X179625107Y-74041900D01*
X179056822Y-74154939D01*
X178575053Y-74476846D01*
X178253146Y-74958615D01*
X178140107Y-75526900D01*
X176897100Y-75526900D01*
X176897100Y-68884800D01*
X200695307Y-68884800D01*
X200808346Y-69453085D01*
X201130253Y-69934854D01*
X201171852Y-69962650D01*
X201124083Y-69971638D01*
X200907959Y-70110710D01*
X200762969Y-70322910D01*
X200711960Y-70574800D01*
X200711960Y-72274800D01*
X200756238Y-72510117D01*
X200895310Y-72726241D01*
X201107510Y-72871231D01*
X201359400Y-72922240D01*
X203059400Y-72922240D01*
X203294717Y-72877962D01*
X203510841Y-72738890D01*
X203655831Y-72526690D01*
X203706840Y-72274800D01*
X203706840Y-70574800D01*
X203662562Y-70339483D01*
X203523490Y-70123359D01*
X203311290Y-69978369D01*
X203243859Y-69964714D01*
X203288547Y-69934854D01*
X203610454Y-69453085D01*
X203723493Y-68884800D01*
X203610454Y-68316515D01*
X203288547Y-67834746D01*
X202806778Y-67512839D01*
X202238493Y-67399800D01*
X202180307Y-67399800D01*
X201612022Y-67512839D01*
X201130253Y-67834746D01*
X200808346Y-68316515D01*
X200695307Y-68884800D01*
X176897100Y-68884800D01*
X176897100Y-52665700D01*
X178910830Y-52665700D01*
X178118514Y-52993078D01*
X178118514Y-52993078D01*
G37*
X178118514Y-52993078D02*
X177404784Y-53705563D01*
X177018041Y-54636945D01*
X177017161Y-55645431D01*
X177402278Y-56577486D01*
X178114763Y-57291216D01*
X179046145Y-57677959D01*
X180054631Y-57678839D01*
X180986686Y-57293722D01*
X181700416Y-56581237D01*
X182087159Y-55649855D01*
X182088039Y-54641369D01*
X181702922Y-53709314D01*
X180990437Y-52995584D01*
X180195987Y-52665700D01*
X219807868Y-52665700D01*
X217525368Y-54948200D01*
X214731600Y-54948200D01*
X214297255Y-55034596D01*
X213929034Y-55280634D01*
X211947834Y-57261834D01*
X211701797Y-57630054D01*
X211623904Y-58021646D01*
X211236402Y-57860741D01*
X210685415Y-57860260D01*
X210176185Y-58070669D01*
X209786239Y-58459936D01*
X209698720Y-58670705D01*
X209607231Y-58449285D01*
X209217964Y-58059339D01*
X208709102Y-57848041D01*
X208158115Y-57847560D01*
X207648885Y-58057969D01*
X207258939Y-58447236D01*
X207047641Y-58956098D01*
X207047160Y-59507085D01*
X207257569Y-60016315D01*
X207646836Y-60406261D01*
X208155698Y-60617559D01*
X208706685Y-60618040D01*
X209215915Y-60407631D01*
X209605861Y-60018364D01*
X209693380Y-59807595D01*
X209784869Y-60029015D01*
X210174136Y-60418961D01*
X210682998Y-60630259D01*
X210979450Y-60630518D01*
X207465255Y-64144713D01*
X207403077Y-64186259D01*
X207350434Y-64221434D01*
X206207781Y-65364087D01*
X206131234Y-65415234D01*
X206080087Y-65491781D01*
X205784450Y-65787418D01*
X204624866Y-64627834D01*
X204585944Y-64601827D01*
X204256646Y-64381797D01*
X203822300Y-64295400D01*
X202400594Y-64295400D01*
X202272900Y-64270000D01*
X202145206Y-64295400D01*
X194386432Y-64295400D01*
X193616200Y-63525168D01*
X193616200Y-62928500D01*
X193607232Y-62883417D01*
X193529804Y-62494155D01*
X193283766Y-62125934D01*
X192051866Y-60894034D01*
X191986563Y-60850400D01*
X191683646Y-60647997D01*
X191249300Y-60561600D01*
X185499376Y-60561600D01*
X185532931Y-60512490D01*
X185583940Y-60260600D01*
X185583940Y-58560600D01*
X185539662Y-58325283D01*
X185400590Y-58109159D01*
X185188390Y-57964169D01*
X184936500Y-57913160D01*
X183236500Y-57913160D01*
X183001183Y-57957438D01*
X182785059Y-58096510D01*
X182640069Y-58308710D01*
X182626414Y-58376141D01*
X182596554Y-58331453D01*
X182114785Y-58009546D01*
X181546500Y-57896507D01*
X180978215Y-58009546D01*
X180496446Y-58331453D01*
X180276500Y-58660626D01*
X180056554Y-58331453D01*
X179574785Y-58009546D01*
X179006500Y-57896507D01*
X178438215Y-58009546D01*
X177956446Y-58331453D01*
X177634539Y-58813222D01*
X177521500Y-59381507D01*
X177521500Y-59439693D01*
X177634539Y-60007978D01*
X177956446Y-60489747D01*
X178438215Y-60811654D01*
X179006500Y-60924693D01*
X179574785Y-60811654D01*
X180056554Y-60489747D01*
X180276500Y-60160574D01*
X180496446Y-60489747D01*
X180642480Y-60587323D01*
X180337455Y-60647996D01*
X179969234Y-60894033D01*
X178394434Y-62468834D01*
X178389347Y-62476447D01*
X178381734Y-62481534D01*
X178135697Y-62849755D01*
X178049300Y-63284100D01*
X178062000Y-63347947D01*
X178062000Y-64731900D01*
X178148397Y-65166246D01*
X178394434Y-65534466D01*
X178762654Y-65780503D01*
X179197000Y-65866900D01*
X179631346Y-65780503D01*
X179999566Y-65534466D01*
X180245603Y-65166246D01*
X180332000Y-64731900D01*
X180332000Y-63741532D01*
X181241933Y-62831600D01*
X190779168Y-62831600D01*
X191346200Y-63398632D01*
X191346200Y-63995300D01*
X191432597Y-64429646D01*
X191634557Y-64731900D01*
X191678634Y-64797866D01*
X193113734Y-66232966D01*
X193481954Y-66479003D01*
X193916300Y-66565400D01*
X203352168Y-66565400D01*
X204630400Y-67843632D01*
X204630400Y-68617753D01*
X204617700Y-68681600D01*
X204630400Y-68745447D01*
X204630400Y-70078600D01*
X204716797Y-70512946D01*
X204883165Y-70761933D01*
X204962834Y-70881166D01*
X205966133Y-71884466D01*
X205966136Y-71884468D01*
X206448733Y-72367066D01*
X206687628Y-72526690D01*
X206816954Y-72613103D01*
X207251300Y-72699500D01*
X214667868Y-72699500D01*
X216949400Y-74981032D01*
X216949400Y-75509500D01*
X216052400Y-75509500D01*
X215618054Y-75595897D01*
X215249834Y-75841934D01*
X215003797Y-76210154D01*
X214917400Y-76644500D01*
X215003797Y-77078846D01*
X215249834Y-77447066D01*
X215618054Y-77693103D01*
X216052400Y-77779500D01*
X217652600Y-77779500D01*
X218086946Y-77693103D01*
X218455166Y-77447066D01*
X218848692Y-77053540D01*
X218886966Y-77027966D01*
X219133003Y-76659746D01*
X219219400Y-76225400D01*
X219219400Y-74981032D01*
X219621332Y-74579100D01*
X226606100Y-74579100D01*
X227040446Y-74492703D01*
X227408666Y-74246666D01*
X227654703Y-73878446D01*
X227741100Y-73444100D01*
X227654703Y-73009754D01*
X227408666Y-72641534D01*
X227040446Y-72395497D01*
X226606100Y-72309100D01*
X223959597Y-72309100D01*
X224033061Y-72235764D01*
X224244359Y-71726902D01*
X224244840Y-71175915D01*
X224034431Y-70666685D01*
X223645164Y-70276739D01*
X223136302Y-70065441D01*
X222585315Y-70064960D01*
X222076085Y-70275369D01*
X221686139Y-70664636D01*
X221474841Y-71173498D01*
X221474360Y-71724485D01*
X221684769Y-72233715D01*
X221760023Y-72309100D01*
X219151200Y-72309100D01*
X218716854Y-72395497D01*
X218348634Y-72641534D01*
X218084400Y-72905768D01*
X215940566Y-70761934D01*
X215794949Y-70664636D01*
X215572346Y-70515897D01*
X215138000Y-70429500D01*
X207721432Y-70429500D01*
X207622418Y-70330486D01*
X207571267Y-70253933D01*
X207494717Y-70202784D01*
X206900400Y-69608468D01*
X206900400Y-68168485D01*
X233679060Y-68168485D01*
X233889469Y-68677715D01*
X234278736Y-69067661D01*
X234787598Y-69278959D01*
X235338585Y-69279440D01*
X235847815Y-69069031D01*
X236237761Y-68679764D01*
X236449059Y-68170902D01*
X236449540Y-67619915D01*
X236239131Y-67110685D01*
X235849864Y-66720739D01*
X235341002Y-66509441D01*
X234790015Y-66508960D01*
X234280785Y-66719369D01*
X233890839Y-67108636D01*
X233679541Y-67617498D01*
X233679060Y-68168485D01*
X206900400Y-68168485D01*
X206900400Y-67881732D01*
X208878845Y-65903287D01*
X208993666Y-65826566D01*
X213552966Y-61267266D01*
X213627671Y-61155462D01*
X213799003Y-60899046D01*
X213885400Y-60464700D01*
X213885400Y-58534532D01*
X213970760Y-58449172D01*
X213970760Y-59930400D01*
X214015038Y-60165717D01*
X214154110Y-60381841D01*
X214366310Y-60526831D01*
X214618200Y-60577840D01*
X216318200Y-60577840D01*
X216553517Y-60533562D01*
X216769641Y-60394490D01*
X216914631Y-60182290D01*
X216928286Y-60114859D01*
X216958146Y-60159547D01*
X217439915Y-60481454D01*
X218008200Y-60594493D01*
X218576485Y-60481454D01*
X219058254Y-60159547D01*
X219380161Y-59677778D01*
X219493200Y-59109493D01*
X219493200Y-59051307D01*
X219380161Y-58483022D01*
X219058254Y-58001253D01*
X218576485Y-57679346D01*
X218008200Y-57566307D01*
X217439915Y-57679346D01*
X216958146Y-58001253D01*
X216930350Y-58042852D01*
X216921362Y-57995083D01*
X216782290Y-57778959D01*
X216570090Y-57633969D01*
X216318200Y-57582960D01*
X214836972Y-57582960D01*
X215201732Y-57218200D01*
X217995500Y-57218200D01*
X218429846Y-57131803D01*
X218798066Y-56885766D01*
X221373932Y-54309900D01*
X224230968Y-54309900D01*
X225890200Y-55969132D01*
X225890200Y-60325000D01*
X225976597Y-60759346D01*
X226121167Y-60975710D01*
X226222634Y-61127566D01*
X226461700Y-61366632D01*
X226461700Y-62936500D01*
X222186732Y-62936500D01*
X222011166Y-62760934D01*
X221642945Y-62514897D01*
X221208600Y-62428500D01*
X220843185Y-62501186D01*
X220643531Y-62017985D01*
X220254264Y-61628039D01*
X219745402Y-61416741D01*
X219194415Y-61416260D01*
X218685185Y-61626669D01*
X218295239Y-62015936D01*
X218083941Y-62524798D01*
X218083460Y-63075785D01*
X218293869Y-63585015D01*
X218683136Y-63974961D01*
X219191998Y-64186259D01*
X219742985Y-64186740D01*
X220168684Y-64010845D01*
X220406034Y-64366066D01*
X220914033Y-64874066D01*
X221226426Y-65082800D01*
X221282254Y-65120103D01*
X221716600Y-65206500D01*
X226987100Y-65206500D01*
X227421446Y-65120103D01*
X227789666Y-64874066D01*
X228322721Y-64341012D01*
X228399266Y-64289866D01*
X228645303Y-63921646D01*
X228731700Y-63487300D01*
X228731700Y-60807600D01*
X228645303Y-60373254D01*
X228399266Y-60005034D01*
X228160200Y-59845295D01*
X228160200Y-55499000D01*
X228073803Y-55064654D01*
X227827766Y-54696434D01*
X225797032Y-52665700D01*
X236449800Y-52665700D01*
X236449800Y-55250337D01*
X236143447Y-54791846D01*
X235661678Y-54469939D01*
X235093393Y-54356900D01*
X235035207Y-54356900D01*
X234466922Y-54469939D01*
X233985153Y-54791846D01*
X233663246Y-55273615D01*
X233550207Y-55841900D01*
X233663246Y-56410185D01*
X233985153Y-56891954D01*
X234026752Y-56919750D01*
X233978983Y-56928738D01*
X233762859Y-57067810D01*
X233617869Y-57280010D01*
X233566860Y-57531900D01*
X233566860Y-59231900D01*
X233611138Y-59467217D01*
X233750210Y-59683341D01*
X233962410Y-59828331D01*
X234214300Y-59879340D01*
X235914300Y-59879340D01*
X236149617Y-59835062D01*
X236365741Y-59695990D01*
X236449800Y-59572966D01*
X236449800Y-60887133D01*
X236378390Y-60776159D01*
X236166190Y-60631169D01*
X235914300Y-60580160D01*
X234214300Y-60580160D01*
X233978983Y-60624438D01*
X233762859Y-60763510D01*
X233617869Y-60975710D01*
X233566860Y-61227600D01*
X233566860Y-62927600D01*
X233611138Y-63162917D01*
X233750210Y-63379041D01*
X233962410Y-63524031D01*
X234029841Y-63537686D01*
X233985153Y-63567546D01*
X233663246Y-64049315D01*
X233550207Y-64617600D01*
X233663246Y-65185885D01*
X233985153Y-65667654D01*
X234466922Y-65989561D01*
X235035207Y-66102600D01*
X235093393Y-66102600D01*
X235661678Y-65989561D01*
X236143447Y-65667654D01*
X236449800Y-65209163D01*
X236449800Y-70299837D01*
X236143447Y-69841346D01*
X235661678Y-69519439D01*
X235093393Y-69406400D01*
X235035207Y-69406400D01*
X234466922Y-69519439D01*
X233985153Y-69841346D01*
X233663246Y-70323115D01*
X233550207Y-70891400D01*
X233663246Y-71459685D01*
X233985153Y-71941454D01*
X234026752Y-71969250D01*
X233978983Y-71978238D01*
X233762859Y-72117310D01*
X233617869Y-72329510D01*
X233566860Y-72581400D01*
X233566860Y-74281400D01*
X233611138Y-74516717D01*
X233750210Y-74732841D01*
X233962410Y-74877831D01*
X234214300Y-74928840D01*
X235914300Y-74928840D01*
X236149617Y-74884562D01*
X236365741Y-74745490D01*
X236449800Y-74622466D01*
X236449800Y-84507000D01*
X180427561Y-84507000D01*
X180973986Y-84281222D01*
X181687716Y-83568737D01*
X182074459Y-82637355D01*
X182075339Y-81628869D01*
X181690222Y-80696814D01*
X180977737Y-79983084D01*
X180046355Y-79596341D01*
X179037869Y-79595461D01*
X178105814Y-79980578D01*
X177392084Y-80693063D01*
X177005341Y-81624445D01*
X177004461Y-82632931D01*
X177389578Y-83564986D01*
X178102063Y-84278716D01*
X178651833Y-84507000D01*
X176897100Y-84507000D01*
X176897100Y-75526900D01*
X178140107Y-75526900D01*
X178253146Y-76095185D01*
X178575053Y-76576954D01*
X178616652Y-76604750D01*
X178568883Y-76613738D01*
X178352759Y-76752810D01*
X178207769Y-76965010D01*
X178156760Y-77216900D01*
X178156760Y-78916900D01*
X178201038Y-79152217D01*
X178340110Y-79368341D01*
X178552310Y-79513331D01*
X178804200Y-79564340D01*
X180504200Y-79564340D01*
X180739517Y-79520062D01*
X180955641Y-79380990D01*
X181100631Y-79168790D01*
X181144490Y-78952207D01*
X198197100Y-78952207D01*
X198197100Y-79010393D01*
X198310139Y-79578678D01*
X198632046Y-80060447D01*
X199113815Y-80382354D01*
X199682100Y-80495393D01*
X200250385Y-80382354D01*
X200732154Y-80060447D01*
X200759950Y-80018848D01*
X200768938Y-80066617D01*
X200908010Y-80282741D01*
X201120210Y-80427731D01*
X201372100Y-80478740D01*
X203072100Y-80478740D01*
X203307417Y-80434462D01*
X203414431Y-80365600D01*
X227873307Y-80365600D01*
X227986346Y-80933885D01*
X228308253Y-81415654D01*
X228349852Y-81443450D01*
X228302083Y-81452438D01*
X228085959Y-81591510D01*
X227940969Y-81803710D01*
X227889960Y-82055600D01*
X227889960Y-83755600D01*
X227934238Y-83990917D01*
X228073310Y-84207041D01*
X228285510Y-84352031D01*
X228537400Y-84403040D01*
X230237400Y-84403040D01*
X230472717Y-84358762D01*
X230688841Y-84219690D01*
X230833831Y-84007490D01*
X230884840Y-83755600D01*
X230884840Y-82055600D01*
X230858627Y-81916290D01*
X233457724Y-81916290D01*
X233627555Y-82326324D01*
X234017842Y-82754583D01*
X234542308Y-83000886D01*
X234772200Y-82880219D01*
X234772200Y-81686400D01*
X235026200Y-81686400D01*
X235026200Y-82880219D01*
X235256092Y-83000886D01*
X235780558Y-82754583D01*
X236170845Y-82326324D01*
X236340676Y-81916290D01*
X236219355Y-81686400D01*
X235026200Y-81686400D01*
X234772200Y-81686400D01*
X233579045Y-81686400D01*
X233457724Y-81916290D01*
X230858627Y-81916290D01*
X230840562Y-81820283D01*
X230701490Y-81604159D01*
X230489290Y-81459169D01*
X230421859Y-81445514D01*
X230466547Y-81415654D01*
X230788454Y-80933885D01*
X230901493Y-80365600D01*
X230788454Y-79797315D01*
X230466547Y-79315546D01*
X229984778Y-78993639D01*
X229416493Y-78880600D01*
X229358307Y-78880600D01*
X228790022Y-78993639D01*
X228308253Y-79315546D01*
X227986346Y-79797315D01*
X227873307Y-80365600D01*
X203414431Y-80365600D01*
X203523541Y-80295390D01*
X203668531Y-80083190D01*
X203719540Y-79831300D01*
X203719540Y-78169400D01*
X233401760Y-78169400D01*
X233401760Y-79869400D01*
X233446038Y-80104717D01*
X233585110Y-80320841D01*
X233797310Y-80465831D01*
X233905307Y-80487701D01*
X233627555Y-80792476D01*
X233457724Y-81202510D01*
X233579045Y-81432400D01*
X234772200Y-81432400D01*
X234772200Y-81412400D01*
X235026200Y-81412400D01*
X235026200Y-81432400D01*
X236219355Y-81432400D01*
X236340676Y-81202510D01*
X236170845Y-80792476D01*
X235894699Y-80489463D01*
X235984517Y-80472562D01*
X236200641Y-80333490D01*
X236345631Y-80121290D01*
X236396640Y-79869400D01*
X236396640Y-78169400D01*
X236352362Y-77934083D01*
X236213290Y-77717959D01*
X236001090Y-77572969D01*
X235749200Y-77521960D01*
X234049200Y-77521960D01*
X233813883Y-77566238D01*
X233597759Y-77705310D01*
X233452769Y-77917510D01*
X233401760Y-78169400D01*
X203719540Y-78169400D01*
X203719540Y-78131300D01*
X203675262Y-77895983D01*
X203536190Y-77679859D01*
X203323990Y-77534869D01*
X203072100Y-77483860D01*
X201372100Y-77483860D01*
X201136783Y-77528138D01*
X200920659Y-77667210D01*
X200775669Y-77879410D01*
X200762014Y-77946841D01*
X200732154Y-77902153D01*
X200250385Y-77580246D01*
X199682100Y-77467207D01*
X199113815Y-77580246D01*
X198632046Y-77902153D01*
X198310139Y-78383922D01*
X198197100Y-78952207D01*
X181144490Y-78952207D01*
X181151640Y-78916900D01*
X181151640Y-77216900D01*
X181107362Y-76981583D01*
X180968290Y-76765459D01*
X180756090Y-76620469D01*
X180688659Y-76606814D01*
X180733347Y-76576954D01*
X181055254Y-76095185D01*
X181168293Y-75526900D01*
X181109457Y-75231107D01*
X198171700Y-75231107D01*
X198171700Y-75289293D01*
X198284739Y-75857578D01*
X198606646Y-76339347D01*
X199088415Y-76661254D01*
X199656700Y-76774293D01*
X200224985Y-76661254D01*
X200706754Y-76339347D01*
X200734550Y-76297748D01*
X200743538Y-76345517D01*
X200882610Y-76561641D01*
X201094810Y-76706631D01*
X201346700Y-76757640D01*
X203046700Y-76757640D01*
X203202708Y-76728285D01*
X206628060Y-76728285D01*
X206838469Y-77237515D01*
X207227736Y-77627461D01*
X207736598Y-77838759D01*
X208287585Y-77839240D01*
X208796815Y-77628831D01*
X209186761Y-77239564D01*
X209398059Y-76730702D01*
X209398540Y-76179715D01*
X209188131Y-75670485D01*
X208798864Y-75280539D01*
X208290002Y-75069241D01*
X207739015Y-75068760D01*
X207229785Y-75279169D01*
X206839839Y-75668436D01*
X206628541Y-76177298D01*
X206628060Y-76728285D01*
X203202708Y-76728285D01*
X203282017Y-76713362D01*
X203498141Y-76574290D01*
X203643131Y-76362090D01*
X203694140Y-76110200D01*
X203694140Y-74410200D01*
X203649862Y-74174883D01*
X203510790Y-73958759D01*
X203298590Y-73813769D01*
X203046700Y-73762760D01*
X201346700Y-73762760D01*
X201111383Y-73807038D01*
X200895259Y-73946110D01*
X200750269Y-74158310D01*
X200736614Y-74225741D01*
X200706754Y-74181053D01*
X200224985Y-73859146D01*
X199656700Y-73746107D01*
X199088415Y-73859146D01*
X198606646Y-74181053D01*
X198284739Y-74662822D01*
X198171700Y-75231107D01*
X181109457Y-75231107D01*
X181055254Y-74958615D01*
X180733347Y-74476846D01*
X180251578Y-74154939D01*
X179683293Y-74041900D01*
X179625107Y-74041900D01*
X179056822Y-74154939D01*
X178575053Y-74476846D01*
X178253146Y-74958615D01*
X178140107Y-75526900D01*
X176897100Y-75526900D01*
X176897100Y-68884800D01*
X200695307Y-68884800D01*
X200808346Y-69453085D01*
X201130253Y-69934854D01*
X201171852Y-69962650D01*
X201124083Y-69971638D01*
X200907959Y-70110710D01*
X200762969Y-70322910D01*
X200711960Y-70574800D01*
X200711960Y-72274800D01*
X200756238Y-72510117D01*
X200895310Y-72726241D01*
X201107510Y-72871231D01*
X201359400Y-72922240D01*
X203059400Y-72922240D01*
X203294717Y-72877962D01*
X203510841Y-72738890D01*
X203655831Y-72526690D01*
X203706840Y-72274800D01*
X203706840Y-70574800D01*
X203662562Y-70339483D01*
X203523490Y-70123359D01*
X203311290Y-69978369D01*
X203243859Y-69964714D01*
X203288547Y-69934854D01*
X203610454Y-69453085D01*
X203723493Y-68884800D01*
X203610454Y-68316515D01*
X203288547Y-67834746D01*
X202806778Y-67512839D01*
X202238493Y-67399800D01*
X202180307Y-67399800D01*
X201612022Y-67512839D01*
X201130253Y-67834746D01*
X200808346Y-68316515D01*
X200695307Y-68884800D01*
X176897100Y-68884800D01*
X176897100Y-52665700D01*
X178910830Y-52665700D01*
X178118514Y-52993078D01*
M02*
